<?xml version="1.0" encoding="utf-8"?>
<!-- Generator: Adobe Illustrator 27.5.0, SVG Export Plug-In . SVG Version: 6.00 Build 0)  -->
<svg version="1.1" id="Layer_1" xmlns="http://www.w3.org/2000/svg" xmlns:xlink="http://www.w3.org/1999/xlink" x="0px" y="0px"
	 viewBox="0 0 7000 3938.461" style="enable-background:new 0 0 7000 3938.461;" xml:space="preserve">
<g>
	<defs>
		<rect id="SVGID_1_" width="7000" height="3938.461"/>
	</defs>
	<clipPath id="SVGID_00000127028079165501435520000009798013659412266934_">
		<use xlink:href="#SVGID_1_"  style="overflow:visible;"/>
	</clipPath>
	<g style="clip-path:url(#SVGID_00000127028079165501435520000009798013659412266934_);">
		<path style="fill:#204F73;" d="M0,0h7000v3938.461H0V0z"/>
		<path style="fill:#1EA1A3;" d="M584.477,1873.658l26.877,0.119l-0.073,101.673l-26.227,0.2L584.477,1873.658z"/>
		<path style="fill:#23A8B8;" d="M5160.846,322.112c-13.077-7.224-25.384-16.577-30.192-31.478
			c-4.039-12.614-2.808-26.753,3.654-38.296c6.269-11.271,17.384-20.647,30.116-23.39c13.538-2.911,26.615-1.999,38.308,5.861
			c10.846,7.292,20.577,20.494,22.654,33.567c2.039,12.515-1.654,25.42-9.154,35.517c-6.616,8.9-14.077,13.704-24.077,18.186
			C5180.808,325.874,5172.347,324.151,5160.846,322.112z"/>
		<path style="fill:#29BAC6;" d="M2565.119,322.762c-14.454-8.626-27.038-18.168-31.854-35.224
			c-3.888-13.779-1.946-29.135,5.785-41.2c7.704-12.022,19.188-19.458,33.254-21.804c12.808-2.136,25.396-0.733,36.319,6.919
			c13.396,9.387,20.331,23.226,22.119,39.311c1.431,12.866-3.877,27.416-12.473,37.02c-5.992,6.699-15.835,12.229-23.996,15.837
			C2584.8,324.601,2574.638,323.285,2565.119,322.762z"/>
		<path style="fill:#1EA1A3;" d="M4268.923,339.205l28-0.017l-1.27,2.927c-9.115,16.895-3.961,246.7-3.961,286.458l3.461,2.969
			l1.039,198.154l-27.23,1.292L4268.923,339.205z"/>
		<path style="fill:#1EA1A3;" d="M5499.692,1725.531l3,1.25l0.269,113.654l361.385,1.173l-23.77,28.454
			c-9.961-7.658-54.653-2.892-69.615-2.815l-245.846,1.069c-16.846-0.131-30.308,0.888-42.654-12.308
			c-18.154-19.45-9.116-94.915-8.846-122.354C5480.961,1726.431,5489.692,1727.1,5499.692,1725.531z"/>
		<path style="fill:#23A8B8;" d="M2668.412,643.096c7.735-18.089,19.338-32.196,37.907-39.892
			c15.962-6.612,41.196-8.696,57.416-1.869c19.338,8.142,34.462,21.477,41.965,41.4c5.823,15.465,4.719,35.781-2.204,50.792
			c-7.754,16.812-23.696,31.996-41.396,37.715c-18.458,5.961-40.081,4.877-57.377-4.254c-20.642-10.9-32.296-29.896-38.473-51.731
			l-0.588-2.165L2668.412,643.096z"/>
		<path style="fill:#29BAC6;" d="M4268.923,339.205c-25-8.28-42.116-18.842-54.462-43.092c-7.692-15.142-10.154-34.848-4.5-51.1
			c6.77-19.392,23.423-36.665,41.962-45.2c17.308-7.997,39.692-9.116,57.653-2.251c18.539,7.07,33.539,23.627,41.116,41.66
			c7.576,18.026,7.538,37.728-0.308,55.614c-8.77,20.006-28.77,35.401-48.885,42.84l-4.577,1.513L4268.923,339.205z"/>
		<path style="fill:#29BAC6;" d="M4296.192,829.696c26.577,6.792,49.077,16.592,63.423,41.677
			c4.731,8.315,8.192,17.546,11.423,26.542l-0.5,25.592c-0.577,3.946-1.423,7.792-2.808,11.535
			c-7.962,21.592-23.192,39.8-44.231,49.573c-17.615,8.192-42.308,11.158-60.923,4.154c-22.269-8.388-39.461-25.112-48.577-47
			c-8.539-20.462-8.039-41.565,0.539-62.023c11.115-26.404,28.769-37.881,54.423-48.758L4296.192,829.696z"/>
		<path style="fill:#1EA1A3;" d="M2565.119,322.762c9.519,0.522,19.681,1.839,29.154,0.86l0.369,319.359l73.769,0.115l-2.75,29.996
			l-348.896,0.565l-59.404-0.192c-6.831-0.027-19.173,1.554-25.427-0.1c-2.258-0.596-6.158-3.892-8.292-5.239
			c-4.627-9.1-5.35-9.104-2.55-18.788c2.131-1.446,5.585-4.581,7.885-5.35c4.804-1.608,15.762-0.573,21.335-0.712l58.588-0.288
			l257.046-0.123L2565.119,322.762z"/>
		<path style="fill:#1EA1A3;" d="M1729.765,292.308c24.946-7.302,81.465,16.165,106.723,24.251
			c130.188,41.675,247.931,122.033,342.173,219.795c16.988,17.623,38.515,36.773,49.704,58.519
			c-0.635,12.981-0.158,13.169-9.346,22.219c-4.358,1.485-13.412,2.45-17.846,1.423c-9.919-2.292-41-42.2-50.289-51.685
			c-81.481-83.239-180.719-153.592-289.208-197.04c-40.1-16.06-81.223-26.739-122.154-40.053
			c-10.427-3.391-13.781-6.495-18.577-15.943C1722.119,302.236,1722.158,300.968,1729.765,292.308z"/>
		<path style="fill:#C05D1E;" d="M3140.342,779.154l-0.062,404.523c-4.85-34.296-1.819-72.027-1.808-106.746
			c-30.292,1.338-57.842,1.661-86.227-10.808c-34.246-15.046-56.392-43.642-69.334-78.077c-12.25-32.592-9.081-75.938,5.923-107.296
			c24.911-52.062,60.838-69.115,112.362-87.15l6.75,39.965l5.911,128.827c8.773,5.639,14.358,4.089,24.519,3.754L3140.342,779.154z"
			/>
		<path style="fill:#91400E;" d="M3065.654,845.158c9.723,17.623,1.304,58.977,0.55,80.738l-0.273,109.758l-3.823,6.627
			c-9.635-7.058-20.069-16.812-27.338-26.25c-19.761-25.665-26.096-59.769-21.166-91.304
			C3019.104,889.519,3037.281,865.573,3065.654,845.158z"/>
		<path style="fill:#A1501C;" d="M3107.946,833.565l5.911,128.827c8.773,5.639,14.358,4.089,24.519,3.754l-0.569,97.627
			c-20.746-2.612-60.761-5.388-75.7-21.492l3.823-6.627l0.273-109.758c0.754-21.762,9.173-63.115-0.55-80.738
			C3076.6,834.992,3093.869,834.011,3107.946,833.565z"/>
		<path style="fill:#C05D1E;" d="M3885.115,789.758c44.846,10.823,80.269,30.3,104.846,71.158
			c20.615,34.308,26.692,77.881,16.808,116.535c-8.924,34.915-32.654,67.677-64.154,85.565
			c-29.692,16.842-61.577,19.692-94.923,18.273c-0.231,33.262,2.577,69.562-1.677,102.408c-2.604-25.242-0.623-52.396-0.608-77.831
			l0.381-136.373l-0.408-15.892l28.888,0.281c1.731-1.723,4.154-2.954,5.192-5.162c3.423-7.208,1-103.792,2.615-122.8
			L3885.115,789.758z"/>
		<path style="fill:#91400E;" d="M3920.231,840.119c25,14.981,42.538,36.962,49.885,65.342c8.385,32.469,4.461,69.219-12.885,98.15
			c-9.154,15.304-21.385,25.865-36.461,35.062L3920.231,840.119z"/>
		<path style="fill:#A1501C;" d="M3882.077,825.919c13.462,3.677,26.192,6.839,38.154,14.2l0.539,198.554
			c-22.615,12.304-47.577,12.25-72.539,12.454l-2.038-77.869l-0.404-3.765l-0.408-15.892l28.888,0.281
			c1.731-1.723,4.154-2.954,5.192-5.162C3882.885,941.511,3880.461,844.927,3882.077,825.919z"/>
		<path style="fill:#2C9B95;" d="M4045.885,3535.877l288-66.888l-21.423,265.565l-4.115,14.531l-307,1.092L4045.885,3535.877z"/>
		<path style="fill:#011537;" d="M6279.615,1430.712l145.154-1.342c18.577-0.119,47.27-4.085,64.231,3.312
			c7.961,6.719,15.308,13.504,17.038,24.308c2.885,17.869,1,38.023,0.77,56.158l-1.27,101.235
			c-0.615,77.523,3.5,157.511-1.269,234.727c-0.308,4.704-1.616,8.192-4.615,11.923c-7.308,9.119-13.769,11.292-25.154,12.496
			l-154.577,0.089c-16.577-0.042-47.231,3.919-61.154-5.469c-7.73-5.189-14.923-14.408-16.692-23.7
			c-2.922-15.454-0.884-34.027-0.923-49.785l-0.154-98.454v-154.142c0.039-24.754-2.077-51.808,0.423-76.335
			c0.615-6.292,3.384-12.219,7-17.342C6256.769,1436.554,6266.039,1432.923,6279.615,1430.712z"/>
		<path style="fill:#C0EDEC;" d="M6315.923,1468.377c4.923-0.496,6.346,1.142,10.538,3.419c0.308,25.242,3.192,53.954-1.5,78.665
			l-7.154-0.065l-5-5.096C6312.615,1523.427,6308.039,1488.288,6315.923,1468.377z"/>
		<path style="fill:#E49137;" d="M6307.846,1567.523c11.153-0.458,16.808,1.823,25.192,8.685c14.692,12.035,109.23-4.273,136,4.989
			l-2.231,4.919l-41.577,0.669c-26.654-0.181-59.5-4.065-85.385,1.25l-4.27,10.939c-5.692,11.292-13.115,13.835-24.307,17.373
			c-11.5-3.719-13.808-4.681-21.654-14.639c-0.384-12.427-1-16.304,5.616-27.35L6307.846,1567.523z"/>
		<path style="fill:#E49137;" d="M6310.269,1635.896c11.346,1.223,17.192,5.408,25.692,13.096
			c12.846,11.673,112.5-6.681,135.115,5.708l-2.576,3.65l-53.846,0.465l-74.27,0.019c-3.423,6.554-7.5,15.481-12.692,20.846
			c-7.539,7.823-15.308,5.819-24.961,5.381c-7.77-6.173-14.077-11.112-15.077-21.815c-1.077-11.196,3.461-14.969,9.961-22.812
			L6310.269,1635.896z"/>
		<path style="fill:#E49137;" d="M6311.423,1704.273l9.692,0.181c7.231,5,11.5,9.381,16.192,16.869
			c4.616,7.419,114.077-4.058,131.808,6.035l-3.038,4.835l-38,0.554c-29.038-0.323-62.692-4.042-91.153,0.558
			c-3.962,8.912-8.154,14.077-15.385,20.565c-13.231-0.061-16.962,0.012-28.615-7.25c-5.616-10.565-5.731-11.661-4.154-23.542
			c2.885-4.458,6.077-9.723,10.616-12.696L6311.423,1704.273z"/>
		<path style="fill:#E49137;" d="M6307.115,1776.069c1.923-0.654,2.5-0.965,4.846-1.092c17.154-0.935,14.77,12.869,26.346,17.362
			c3.885,1.515,17.539-0.062,22.385-0.069l79.5,0.219c10.269,0.038,23.538-2.342,31.577,4.092l-2.692,3.908l-44.153,0.827
			l-84.577,1.085l-14.5,18.827c-12.308,3.569-13.577,3.481-25.692-0.715c-7.923-9.185-9.461-11.35-11.154-23.931
			C6294.192,1785.188,6297.231,1783.038,6307.115,1776.069z"/>
		<path style="fill:#84B5A9;" d="M5864.346,1841.608c48.73-37.554,101.23-65.573,164.846-57.658
			c57.154,7.108,110.654,35.358,145.308,81.727c23.423,31.319,40.192,73.285,39.731,112.854l-0.346,145.308l-410.461,0.212
			l-0.077-110.039c0.039-21.646-1.615-44.985,3.077-66.165c6.308-28.312,19.615-53.05,34.153-77.785L5864.346,1841.608z"/>
		<path style="fill:#1EA1A3;" d="M481.508,1860.227c-2.835,0.727-5.246,1.319-8.181,1.527c-16.808,1.192-34.811-0.273-51.7-0.573
			c-27.238-0.481-56.123,3.627-78.121-15.612c-8.624-7.546-14.088-18.746-14.602-30.185l-0.551-326.608l0.812-662.519
			l-0.521-292.923l0.296-59.35c0.046-6.938-1.357-18.358,0.189-24.835c1.43-5.992,10.26-17.415,14.58-21.881
			c4.079-4.211,13.803-12.577,19.213-14.608c15.69-5.892,47.293-1.781,64.354-1.804L618.55,410.8l-0.446-73.681
			c0.039-25.009-5.092-51.793,13.535-71.314c12.842-13.46,27.515-15.065,45.265-15.356l461.385,0.885l127.927,0.91
			c18.142,0.179,40.458-2.025,58.196,1.141c9.515,1.699,18.165,7.211,24.831,14.145c5.823,6.06,11.073,14.555,13.123,22.787
			c3.727,14.957,1.331,36.182,1.288,51.742l0.519,98.549l-15.785,7.508c-5.262-2.104-6.312-2.462-9.742-6.888
			c-26.873-23.558-50.1-59.089-72.865-87.021l-89.719,59.648c-11.158,7.939-22.608,17.527-34.558,24.089
			c-12.381-5.246-30.323-2.888-43.715-2.846l-90.392,0.45l-365.254,0.831l0.231,153.55c-0.015,16.75,3.973,48.335-3.796,62.915
			l-7.962,4.604c-4.796-1.585-9.012-1.758-11.238-6.942c-6.585-15.335-0.796-183.711-0.673-214.288l-183.896,0.404
			c-16.815,0.058-46.054-3.496-61.812,1.942c-3.029,1.046-8.576,5.331-10.805,7.592c-3.795,3.846-6.77,8.727-6.877,14.054
			l-0.35,856.565l0.064,337.761c0.061,52.065-3.613,107.508,0.482,159.142c0.814,10.269,6.454,12.958,13.63,18.908
			c36.167,3.5,77.432-3.75,112.248,3.135L481.508,1860.227z"/>
		<path style="fill:#204F73;" d="M1176.062,413.854c-57.258-9.088-122.469-3.3-180.592-3.288l-353.315-0.058
			c-0.115-25.369-6.95-109.553,6.839-127.199c3.589-2.793,7.761-5.62,12.385-6.193c33.869-4.195,72.027-0.634,106.481-0.54
			l216.715,0.093l227.012,0.258c32.489,0.06,68.435-3.351,100.389,0.516c9.035,1.093,16.204,4.495,21.608,12.021
			c13.115,18.276,6.365,80.537,6.354,103.662c-0.008,14.054,2.069,31.815-0.715,45.488l-0.573,2.612
			c-26.873-23.558-50.1-59.089-72.865-87.021L1176.062,413.854z"/>
		<path style="fill:#84B5A9;" d="M3293.504,3382.739c40.635,58.158,88.8,96.892,160.669,109.758
			c59.739,10.692,123.446-5.404,172.515-40.727c21.558-15.519,40.608-37.239,57.881-57.312l12.839,10.142
			c14.396,7.677,27.269,10.054,43.435,11.331c-10,15.596-19.046,29.277-15.046,48.669c2.769,13.415,16.685,24.658,26.177,33.531
			c11.708,6.419,21.911,8.711,35.065,10.638c-0.881,21.342-1.962,39.631,13.6,56.45c7.454,8.054,16.789,12.646,26.938,16.4
			c9.388,3.469,23.192-0.4,32.654-2.431l94.346-22.792c30.116-7.046,61.731-11.758,91.309-20.519l-44.539,214.3l-493.435,0.104
			l-24.754,0.261c-47.923-3.046-97.958-0.239-146.131-0.188l-294.985,0.208l-88.104-0.065c-12.623-0.023-27.261,1.992-38.923-3.396
			c0.773-22.315,6.796-46.223,10.408-68.362l21.746-131.577c36.562,11.55,77.654,16.942,115.331,25.288
			c23.277,5.154,54.062,16.558,77.723,15.6c12.715-0.519,22.192-6.261,30.469-15.423c10.861-12.023,14.069-24.758,13.469-40.623
			l-2.539-20.508l15.888,1.635c13.231-4.292,24.819-12.792,32.208-24.781c10.104-16.389,7.673-30.085,3.354-47.75l-10.119-23.123
			c9.715,2.1,21.908,5.892,31.65,3.023l2.719-0.915l6.65-2.223C3279.289,3410.989,3287.246,3397.235,3293.504,3382.739z"/>
		<path style="fill:#F9FDFA;" d="M3483.158,3750.542c0.108-27.485-4.858-152.104,4.881-164.7l17.088,0.019
			c5.008,15.408,2.573,36.604,2.631,52.885l0.154,111.535L3483.158,3750.542z"/>
		<path style="fill:#011537;" d="M3101.196,793.6c-11.808-37.973-18.335-78.254-25.843-117.269
			c-1.673-8.708-2.907-29.942-7.05-36.977c-3.312-5.619-18.415-14.923-23.981-19.088l-65.511-50.735
			c44.158-129.7,108.577-237.184,222.854-316.526c114.154-79.257,251.4-108.673,388.027-83.775
			c139.596,25.44,258.961,111.69,338.192,227.824c32.039,46.942,56.115,98.627,75.769,151.819c0.692,1.95,7.154,17.958,6.885,18.815
			c-0.462,1.323-15.539,11.092-17.577,12.569l-59.885,44.342c-4.308,3.435-14.077,9.531-16.885,13.723
			c-3.692,5.454-5.731,23.327-7.346,30.581l-23.731,120.854l-3.039,36.161c-1.615,19.008,0.808,115.592-2.615,122.8
			c-1.038,2.208-3.461,3.439-5.192,5.162l-28.888-0.281l-0.881-196.235l-0.612-69.035l-26.758,14.108
			c-146.719,74.377-343.642,82.138-502.446,50.108c-40.242-8.115-79.242-20.95-118.196-33.692l-56.335-25.458l0.188,85.758
			l-1.965,186.992c-10.162,0.335-15.746,1.885-24.519-3.754l-5.911-128.827L3101.196,793.6z"/>
		<path style="fill:#E49137;" d="M3196.489,718.854c38.954,12.742,77.954,25.577,118.196,33.692
			c158.804,32.031,355.727,24.269,502.446-50.108l26.758-14.108l0.612,69.035l0.881,196.235l0.408,15.892l-0.381,136.373
			c-0.015,25.435-1.996,52.589,0.608,77.831l-1.008,40.261c-15.427,89.223-59.712,155.635-133.881,207.892
			c-79.823,56.239-199.2,71.904-293.9,55.035c-47.823-8.519-85.996-26.712-128.088-49.615
			c-16.838-10.254-31.308-22.181-46.258-34.923c-50.119-53.527-82.042-102.935-97.115-174.973
			c-3.304-14.446-4.304-28.958-5.485-43.696l0.062-404.523l-0.188-85.758L3196.489,718.854z"/>
		<path style="fill:#011537;" d="M3684.292,972.65c9.692-3.396,16.892-4.319,26.877-1.435c11.265,3.254,20.869,12.346,25.858,22.804
			c4.273,8.962,3.739,20.527,0.438,29.785c-4.296,12.069-12.858,17.204-23.842,22.519c-5.181,1.7-10.188,3.008-15.7,2.385
			c-12.173-1.381-23.304-8.311-30.308-18.331c-5.527-7.904-8.046-17.419-6.131-26.958
			C3664.562,988.089,3672.015,980.8,3684.292,972.65z"/>
		<path style="fill:#011537;" d="M3288.392,969.231c7.084-1.381,15.461-0.123,22.069,2.681
			c10.946,4.642,18.466,13.177,22.046,24.558c3.177,10.096,1.657,21.412-3.269,30.715c-6.481,12.242-16.958,16.058-29.188,20.292
			c-7.362,1.196-13.377,0.681-20.362-2.154c-9.612-3.904-19.104-11.208-22.908-21.1c-4.069-10.577-4.096-22.45,1.15-32.585
			C3264.727,978.515,3274.838,973.427,3288.392,969.231z"/>
		<path style="fill:#011537;" d="M3253.946,866.45l118.754,0.808c-0.123,13.869,3.323,38.473-4.292,49.504l-27.342,0.292
			l-119.708,1.808L3253.946,866.45z"/>
		<path style="fill:#011537;" d="M3603.146,865.581l128.215-0.189l49.608,54.323l-177.865,0.065L3603.146,865.581z"/>
		<path style="fill:#C05D1E;" d="M3196.489,718.854c38.954,12.742,77.954,25.577,118.196,33.692
			c158.804,32.031,355.727,24.269,502.446-50.108l26.758-14.108l0.612,69.035c-4.131-16.815-2.304-37.469-2.6-54.862
			c-15.908,21.239-31.004,42.558-50.831,60.454c-71.346,64.4-186.011,92.165-280.3,86.985
			C3390.535,843.335,3278.785,811.069,3196.489,718.854z"/>
		<path style="fill:#204F73;" d="M5192.154,322.079l-0.885,90.651l3.385-0.335l800.27-1.231l-0.192-107.285
			c0-12.326-2.385-30.557,2.884-41.47c2.654-1.999,6.5-5.816,9.461-7.06c17.539-7.41,62.847-2.035,83.692-2.081l254.692,0.054
			c7.27,5.371,10.962,7.125,12.192,16.763l-0.192,141.045l223.923-0.577c24.539-0.015,71.654-5.769,93,4.054
			c1.23,1.95,4.269,5.554,4.808,7.615c2.039,7.681,0.423,21.861,0.539,30.127l0.038,79.646l-0.269,329.469l0.923,277.492
			c0.269,41.85,6.5,96.089-1.462,136.881c-2.192,11.261-11.192,21.315-20.769,27.231c-13.961,8.65-43.423,5.55-59.884,5.565
			h-142.077l-491.192-1.027l-37.5,108.515l-103.346-27.339l-30.039,54.177l60.923,81.362c-7.423,12.323-19.5,23.023-29.5,33.304
			l-67.461,65.888l-91.423-65c-16.269,10.477-32.039,19.904-49.654,27.996l26.5,96.835l-140.846,43.435l-3-1.25l-38.077-104.919
			c-20.654,2.812-39.461,2.646-60.192,1.346c-15.808,29.562-24.885,71.231-34.539,103.512c-47.5-7.173-96.27-25.946-141.616-41.577
			c-0.962-9.492,4.616-22.35,7.154-31.627l16.808-64.419l-54.423-32.473c-23,19.535-52.231,53.877-78.308,67.158l-99.654-97.538
			l57.154-80.831l-32.115-51.154l-100.27,21.011c-19.884-45.55-31.423-94.804-42.769-143.011l102.539-38.119l0.346-56.977
			c-29.423-13.365-66.462-23.542-92.77-41.4l0.039-15.942l-311.423-0.931c-10.038-18.392-3.461-162.454-3.423-194.569
			l-223.615,0.438l0.5-25.592c-3.231-8.996-6.692-18.227-11.423-26.542c-14.346-25.085-36.846-34.885-63.423-41.677l-1.039-198.154
			l-3.461-2.969c0-39.758-5.154-269.563,3.961-286.458l-0.308,65.758c1.23,6.204,88.885,3.615,104.885,3.592
			c73.654-0.104,742.192-6.038,755.77,3.515c0.423,8.058,2.038,15.227-1.693,22.523c-15.308,3.435-32.885,1.862-48.539,1.908
			l-86.73,0.165l-346.692,0.027l0.153,134.95l489.615,0.112l-1.27-252.554C5172.347,324.151,5180.808,325.874,5192.154,322.079z"/>
		<path style="fill:#1EA1A3;" d="M4597.577,1117.639c-3.808-29.246-0.615-62.773-0.577-92.431c0.077-32.192-3.385-69.115,2-100.738
			l8.5,1.942l0.423,178.465l306.923,1.4l-5.846,12.292L4597.577,1117.639z"/>
		<path style="fill:#1EA1A3;" d="M6430.923,1100.727l0.423,23.308l-461.308,0.989l-4.654-24.062L6430.923,1100.727z"/>
		<path style="fill:#23A8B8;" d="M6430.923,1100.727c8.077-21.565,17.961-37.427,39.73-47.131c14.461-6.462,36-7.219,50.731-1.146
			c17.807,7.358,30.115,20.115,37.077,38.15c5.846,15.119,6.615,34.269-0.577,49c-8.116,16.615-22.539,29.677-40.192,35.215
			c-16.846,5.281-37.423,4.623-53-4.292c-17.845-10.223-26.615-27.938-33.346-46.489L6430.923,1100.727z"/>
		<path style="fill:#2C9B95;" d="M4371.039,897.915l614.077-0.388c3.808,8.946,1.654,14.854,0.27,24.154
			c-19.769,6.604-53.231,2.369-74.539,2.327l-222.077-0.485c-20.538-0.031-63.461-5.3-81.269,2.888l-8.5-1.942
			c-5.385,31.623-1.923,68.546-2,100.738c-0.039,29.658-3.231,63.185,0.577,92.431c-10.038-18.392-3.461-162.454-3.423-194.569
			l-223.615,0.438L4371.039,897.915z"/>
		<path style="fill:#2C9B95;" d="M5192.154,322.079l-0.885,90.651l3.385-0.335l800.27-1.231l-0.192-107.285
			c0-12.326-2.385-30.557,2.884-41.47c2.654-1.999,6.5-5.816,9.461-7.06c17.539-7.41,62.847-2.035,83.692-2.081l254.692,0.054
			c7.27,5.371,10.962,7.125,12.192,16.763l-0.192,141.045l223.923-0.577c24.539-0.015,71.654-5.769,93,4.054
			c1.23,1.95,4.269,5.554,4.808,7.615c2.039,7.681,0.423,21.861,0.539,30.127l0.038,79.646l-0.269,329.469l0.923,277.492
			c0.269,41.85,6.5,96.089-1.462,136.881c-2.192,11.261-11.192,21.315-20.769,27.231c-13.961,8.65-43.423,5.55-59.884,5.565
			h-142.077l-491.192-1.027l9.231-27.815l7.769,1.211c25.038,3.123,53.654,0.681,79,0.673l160.423-0.096l268.462-0.327
			l136.769-0.523c9.077-0.458,15.462-0.742,22.962-6.438c2.27-3.281,4.5-7.004,4.923-11.046c2.923-27.438,0.347-58.177,0.347-85.892
			l-0.077-176.261L6655,437.7l-297.308-0.462l0.077,7.8l0.154,383.573l-0.27,76.077c-0.115,3.985,0.808,15.419-0.769,18.388
			c-1.27,2.473-5.923,6.035-8,8.173c-15.039,5.508-38.5,2.619-54.654,2.642l-121.077,0.039l-174.23-0.173
			c-28.231-0.05-59.731,2.635-87.539-1.612c-1.577-7.265-4.885-10.388-10.039-15.631l-2-1.985
			c15-10.512,385.308-4.746,434.615-4.777l0.192-472.373l-1143.192,1.065l-1.385,159.731l-538.423,0.723V438.304l-356.077,1.119
			l0.077,192.119l-3.461-2.969c0-39.758-5.154-269.563,3.961-286.458l-0.308,65.758c1.23,6.204,88.885,3.615,104.885,3.592
			c73.654-0.104,742.192-6.038,755.77,3.515c0.423,8.058,2.038,15.227-1.693,22.523c-15.308,3.435-32.885,1.862-48.539,1.908
			l-86.73,0.165l-346.692,0.027l0.153,134.95l489.615,0.112l-1.27-252.554C5172.347,324.151,5180.808,325.874,5192.154,322.079z"/>
		<path style="fill:#204F73;" d="M6018.269,277.432l315.577-0.765l0.039,134.448l-315.961,0.054L6018.269,277.432z"/>
		<path style="fill:#E66E38;" d="M4914.846,1106.277c-0.192-10.185,4.308-22.692,6.808-32.773
			c7.077-28.5,16.192-55.685,26.385-83.211c8.846-1.023,22.077,4.927,31,7.423l66.615,16.865
			c9.115-18.665,19.885-35.004,31.77-51.939l-64.462-86.75l98.423-94.238l81.039,65.904l53.692-32.031l-26-98.25
			c47.192-20.135,97.192-33.973,146.961-46.081l27.462,69.885c4.077,10.019,7.769,23.854,15.346,31.704
			c17.692-0.142,35.962,0.662,53.539-1.454l34.615-96.562c37.807,6.658,75.346,16.815,111.461,29.788
			c12.154,4.362,26.923,8.265,37.115,16.235l-22.577,96.135l53.846,30.704L5765.961,784l95.808,92.862
			c-14,31.569-40.385,63.7-58.654,93.577c10.423,14.661,18.461,30.911,26.923,46.762c33.038-5.354,73.539-19.308,106.231-19.315
			l29.115,103.077l4.654,24.062l-0.539,13.327c-22.461,11.827-51.769,17.885-76.269,25.373c-8.616,2.646-20.923,4.646-27.77,10.173
			c-0.038,14.635-4.192,52.919,2.308,64.196c33.577,13.431,75.231,24.7,106.5,41.7l-9.231,27.815l-37.5,108.515l-103.346-27.339
			l-30.039,54.177l60.923,81.362c-7.423,12.323-19.5,23.023-29.5,33.304l-67.461,65.888l-91.423-65
			c-16.269,10.477-32.039,19.904-49.654,27.996l26.5,96.835l-140.846,43.435l-3-1.25l-38.077-104.919
			c-20.654,2.812-39.461,2.646-60.192,1.346c-15.808,29.562-24.885,71.231-34.539,103.512c-47.5-7.173-96.27-25.946-141.616-41.577
			c-0.962-9.492,4.616-22.35,7.154-31.627l16.808-64.419l-54.423-32.473c-23,19.535-52.231,53.877-78.308,67.158l-99.654-97.538
			l57.154-80.831l-32.115-51.154l-100.27,21.011c-19.884-45.55-31.423-94.804-42.769-143.011l102.539-38.119l0.346-56.977
			c-29.423-13.365-66.462-23.542-92.77-41.4l0.039-15.942L4914.846,1106.277z"/>
		<path style="fill:#198899;" d="M5405.808,951.258c57.539-6.65,117.116,4.646,165.577,37.354
			c60.615,40.908,101.192,99.623,114.077,171.992c11.27,63.296-9.846,127.719-46.27,179.115
			c-41.615,58.8-99.346,90.542-169.077,102.696c-62.039,5.427-121.884-4.912-174.192-40.496
			c-57.384-39.054-95.692-97.281-108.384-165.558c-11.385-61.208,8.308-131.035,43.538-181.285
			C5272.731,995.642,5335.577,963.296,5405.808,951.258z"/>
		<path style="fill:#FCECDB;" d="M5424.346,1070.815c27.115-1.858,54.423,5.069,77.577,19.323
			c27.884,17.181,49.692,45.354,57.153,77.523c6.654,28.727,1.5,63.239-14.23,88.235c-22.154,35.231-55,53.535-94.577,62.358
			c-30.615-0.177-54.846-2.469-81.27-19.423c-28.423-18.25-49.269-46.558-56.269-79.854c-6.308-29.869,0.692-64.946,17.692-90.242
			C5353,1095.165,5385.731,1078.608,5424.346,1070.815z"/>
		<path style="fill:#84B5A9;" d="M1364.173,440.608l105.985-38.719l13.858-136.868l148.161-6.723l22.235,124.221
			c181.285,13.705,338.446,84.94,457.877,224.351c80.669,94.169,129.608,204.365,151.635,325.804l126.381-0.938l-0.323,173.592
			l-125.873-0.969l-7.027,60.392l159.792,65.146c-62.954,15.892-113.15,41.265-147.869,98.404l-15.015,28.888
			c-7.281,19.688-15.442,40.219-17.669,61.185c-3.088,29.062-1.2,59.75-1.211,89.012l-0.027,157.865l0.092,198.973
			c0.031,36.923-1.819,75.065,0.954,111.846l-2.204,1.658l-1037.223-1.696l-0.861,141.281c-4.723-10.165-2.892-23.942-2.869-35.065
			c0.073-38.75,5.904-86.746-0.831-124.635c-5.465-30.734-19.996-57.915-35.781-84.361l-21.385-24.411
			c-49.992-40.55-106.223-66.377-172.073-59.254c-53.419,5.773-100.069,29.389-137.612,67.542l-13.008,16.296l-25.738-0.181
			c-56.339,5.75-118.246,0.573-175.189,0.535l-26.877-0.119c-30.296,0.154-71.873,5.65-100.692-1.862l-2.277-11.569l-0.119-24.508
			c-34.815-6.885-76.081,0.365-112.248-3.135c-7.176-5.95-12.816-8.638-13.63-18.908c-4.095-51.635-0.42-107.077-0.482-159.142
			l-0.064-337.761l0.35-856.565c0.107-5.327,3.082-10.208,6.877-14.054c2.229-2.262,7.776-6.546,10.805-7.592
			c15.758-5.438,44.996-1.885,61.812-1.942l183.896-0.404c-0.123,30.577-5.911,198.954,0.673,214.288
			c2.227,5.185,6.442,5.358,11.238,6.942l7.962-4.604c7.769-14.581,3.781-46.165,3.796-62.915l-0.231-153.55l365.254-0.831
			l90.392-0.45c13.392-0.042,31.335-2.4,43.715,2.846c11.95-6.561,23.4-16.15,34.558-24.089l89.719-59.648
			c22.765,27.932,45.992,63.463,72.865,87.021c3.431,4.427,4.481,4.785,9.742,6.888L1364.173,440.608z"/>
		<path style="fill:#23A8B8;" d="M1147.158,799.888c59.908-131.289,170.019-229.573,304.304-280.142
			c131.473-49.508,274.104-40.531,401.142,17.112c61.077,29.396,115.535,67.808,162.631,116.465
			c103.646,117.315,161.792,252.938,151.815,411.804l-5.769,50.808c-15.162,61.765-31.519,125.754-64.196,181.004
			c-82.127,129.154-195.773,224.465-347.742,258.635c-86.419,19.431-162.942,11.235-248.642-5.308
			c-59.192-19.596-114.842-42.881-166.569-78.212c-29.685-21.092-57.758-43.423-82.996-69.785
			c-111.277-116.227-157.442-255.185-154.258-414.2C1100.996,923.646,1120.2,858.2,1147.158,799.888z"/>
		<path style="fill:#204F73;" d="M2015.235,653.323c103.646,117.315,161.792,252.938,151.815,411.804l-5.769,50.808l-160.208-55.758
			c-0.546-0.185-1.342-0.054-1.642-0.546c-0.827-1.369,0.223-13.981,0.246-16.181c0.219-19.731,0.9-40.027-1.661-59.608
			c-9.015-68.865-35.442-129.835-76.527-185.315L2015.235,653.323z"/>
		<path style="fill:#204F73;" d="M1096.877,988.069l198.408,30.985c1.519,81.131,23.2,162.119,78.823,223.681
			c5.273,5.835,28.058,24.542,29.892,30.269c0.25,0.773-0.604,1.512-0.908,2.265c-25.269,63.446-50.011,131.219-68.961,196.785
			c-29.685-21.092-57.758-43.423-82.996-69.785C1139.858,1286.042,1093.692,1147.085,1096.877,988.069z"/>
		<path style="fill:#204F73;" d="M1500.7,1550.265l93.723-173.765c30.95,6.046,61.788,6.154,92.977,1.881
			c99.3-13.604,189.696-67.039,250.3-146.789l159.385,65.346c-82.127,129.154-195.773,224.465-347.742,258.635
			C1662.923,1575.004,1586.4,1566.808,1500.7,1550.265z"/>
		<path style="fill:#204F73;" d="M1147.158,799.888c59.908-131.289,170.019-229.573,304.304-280.142
			c131.473-49.508,274.104-40.531,401.142,17.112l-84.127,156.958c-86.496-32.062-187.338-30.089-271.362,8.965
			c-60.788,28.254-123.704,80.165-155.196,140.069L1147.158,799.888z"/>
		<path style="fill:#198899;" d="M1618.319,780.458l1.777-0.438c55.392-6.204,115.265,10.262,161.388,41.204
			c58.685,39.365,93.396,99.031,106.608,167.869c11.592,60.408-10.388,127.846-43.739,177.85
			c-39.192,58.769-102.969,90.915-170.446,104.619c-61.496,6.55-119.839-6.381-171.039-42.315
			c-53.269-37.381-89.2-98.935-99.554-162.704c-10.839-66.739,5.869-135.508,45.596-190.008
			C1489.9,820.304,1551.146,790.754,1618.319,780.458z"/>
		<path style="fill:#E6E5D3;" d="M1617.569,940.896c18.954-1.362,38.169-2.754,56.285,3.869
			c22.385,8.185,41.308,24.369,51.215,46.227c9.638,21.265,12.365,50.431,3.585,72.208c-12.369,30.681-32.485,44.346-61.712,56.627
			c-18.881,2.996-41.188,3.173-59.15-3.919c-22.854-9.023-38.973-26.161-48.635-48.527c-10.011-23.181-10.173-50.035-0.739-73.415
			C1569.592,966.269,1590.969,952.069,1617.569,940.896z"/>
		<path style="fill:#204F73;" d="M481.388,1835.719c-34.815-6.885-76.081,0.365-112.248-3.135
			c-7.176-5.95-12.816-8.638-13.63-18.908c-4.095-51.635-0.42-107.077-0.482-159.142l-0.064-337.761l0.35-856.565
			c0.107-5.327,3.082-10.208,6.877-14.054c2.229-2.262,7.776-6.546,10.805-7.592c15.758-5.438,44.996-1.885,61.812-1.942
			l183.896-0.404c-0.123,30.577-5.911,198.954,0.673,214.288c2.227,5.185,6.442,5.358,11.238,6.942l7.962-4.604
			c7.769-14.581,3.781-46.165,3.796-62.915l-0.231-153.55l365.254-0.831l90.392-0.45c13.392-0.042,31.335-2.4,43.715,2.846
			c3.523,15.231,13.146,29.2,20.835,42.715l39.569,69.723c-91.346,78.888-161.273,188.788-190.527,306.477l-10.365,48.004
			c-2.635,13.169-6.246,39.404-6.669,39.573c-8.758,3.508-128.046-6.108-146.558-6.938l0.281,173.011l146.673-3.169
			c27.604,176.696,112.358,335.581,259.012,442.446c88.404,64.423,190.335,105.481,298.481,121.408l-0.123,119.896l160.5,0.173
			l0.396-118.711c176.511-23.758,324.331-110.812,432.469-252.896l55.627-87.769l52.885,25.304
			c-7.281,19.688-15.442,40.219-17.669,61.185c-3.088,29.062-1.2,59.75-1.211,89.012l-0.027,157.865l0.092,198.973
			c0.031,36.923-1.819,75.065,0.954,111.846l-2.204,1.658l-1037.223-1.696l-0.861,141.281c-4.723-10.165-2.892-23.942-2.869-35.065
			c0.073-38.75,5.904-86.746-0.831-124.635c-5.465-30.734-19.996-57.915-35.781-84.361l-21.385-24.411
			c-49.992-40.55-106.223-66.377-172.073-59.254c-53.419,5.773-100.069,29.389-137.612,67.542l-13.008,16.296l-25.738-0.181
			c-56.339,5.75-118.246,0.573-175.189,0.535l-26.877-0.119c-30.296,0.154-71.873,5.65-100.692-1.862l-2.277-11.569
			L481.388,1835.719z"/>
		<path style="fill:#198899;" d="M786.754,1853.104l38.535,4.023l-13.008,16.296l-25.738-0.181L786.754,1853.104z"/>
		<path style="fill:#2C9B95;" d="M1134.973,1848.839c41.681,0.177,315.696-8.723,330.731,2.442l3.277,10.258
			c-4.935,7.142-4.9,8.954-13.627,10.685c-23.1,4.581-54.969,0.688-79.258,0.696l-219.739,0.331L1134.973,1848.839z"/>
		<path style="fill:#011537;" d="M765.911,755.827l0.254,30.496l-5.669,3.946c-33.808-0.019-259.727,5.323-271.323-3.946
			L489,756.127L765.911,755.827z"/>
		<path style="fill:#1EA1A3;" d="M1199.819,1578.442c46.708,37.462,88.408,72.419,142.9,98.831l80.481,34.242
			c11.185,4.192,26.789,6.877,33.319,16.688c-1.238,10.531-1.192,22.442-7.3,31.377l-8.546-1.473
			c-97.915-24.396-194.692-84.296-268.946-151.673L1199.819,1578.442z"/>
		<path style="fill:#23A8B8;" d="M489,756.127l-0.089-52.15l276.358-0.342c0.081,15.558-2.727,37.431,0.642,52.192L489,756.127z"/>
		<path style="fill:#23A8B8;" d="M489.581,845.358l-0.273-52.223l276.242,0.096l-0.277,51.831L489.581,845.358z"/>
		<path style="fill:#011537;" d="M537.542,1260.577l1.019-2.658l155.019,0.708l-0.246,122.835l-125.615-0.181l-0.054-89.542
			c-0.004-10.385,2.338-21.739-3.7-30.3L537.542,1260.577z"/>
		<path style="fill:#E49137;" d="M489.581,845.358l275.692-0.296l0.304,246.496c0.015,39.238,3.438,82.065-0.577,120.908
			l-0.5,46.896l-70.919-0.734l-155.019-0.708l-1.019,2.658l-48.796,0.462l0.231-48.027L489.581,845.358z"/>
		<path style="fill:#202437;" d="M488.977,1213.011L765,1212.465l-0.5,46.896l-70.919-0.734l-155.019-0.708l-1.019,2.658
			l-48.796,0.462L488.977,1213.011z"/>
		<path style="fill:#23A8B8;" d="M486.538,1823.019l0.562-2.642c8.123-40.477,2.1-92.415,2.073-133.969l-0.454-304.196
			l280.669,1.346l0.092,437.842l14.942,3.535c2.408,9.562,2.4,18.412,2.331,28.169l-0.211,20.139
			c-56.339,5.75-118.246,0.573-175.189,0.535l-26.877-0.119c-30.296,0.154-71.873,5.65-100.692-1.862l-2.277-11.569l-0.119-24.508
			C481.727,1829.642,483.065,1827.715,486.538,1823.019z"/>
		<path style="fill:#E66E38;" d="M486.538,1823.019l198.215,0.412c25.185,0.027,61.138,4.527,84.727-2.031l14.942,3.535
			c2.408,9.562,2.4,18.412,2.331,28.169l-0.211,20.139c-56.339,5.75-118.246,0.573-175.189,0.535l-26.877-0.119
			c-30.296,0.154-71.873,5.65-100.692-1.862l-2.277-11.569l-0.119-24.508C481.727,1829.642,483.065,1827.715,486.538,1823.019z"/>
		<path style="fill:#011537;" d="M3145.765,1227.373c15.073,72.038,46.996,121.446,97.115,174.973
			c0.031,12.135,3.088,107.019,0.308,112.185c-1.092,2.027-3.1,3.404-4.65,5.104l-7.904,1.146
			c46.85,73.569,102.596,143.473,153.877,214.215l64.808,89.654c9.677,12.7,19.258,27.454,31.104,38.146l3.362,3.865l-0.204,943.273
			l-1.465,45.985l-340.362-0.873l-75.485,0.054c-10.654,0.027-25.919-1.485-36.104,1.596c-5.223,1.581-15.638,10.223-19.573,14.169
			c-16.858,16.892-49.584,218.538-59.935,258.004c22.665-0.077,50.942,13.131,72.842,19.608l235.75,74.104
			c15.373,3.661,38.423,7.965,47.873,22.235c8.258,12.469,11.162,29.938,7.823,44.485c-2.285,9.95-11.546,18.665-20.023,23.877
			c-8.335,5.123-17.385,7.334-27.131,7.404l-1.669,14.035c10.438,5.104,19.608,8.131,23.181,20.654l4.2,27.469
			c-6.258,14.496-14.215,28.25-29.531,34.623l-6.65,2.223l-2.719,0.915c-9.742,2.869-21.935-0.923-31.65-3.023l10.119,23.123
			c4.319,17.665,6.75,31.361-3.354,47.75c-7.388,11.988-18.977,20.488-32.208,24.781l-15.888-1.635l2.539,20.508
			c0.6,15.865-2.608,28.6-13.469,40.623c-8.277,9.162-17.754,14.904-30.469,15.423c-23.662,0.958-54.446-10.446-77.723-15.6
			c-37.677-8.346-78.769-13.739-115.331-25.288l-21.746,131.577c-3.612,22.138-9.635,46.046-10.408,68.362l-3.481,0.292
			c-2.162,1.465-5.704,4.677-8.031,5.446c-6.85,2.262-22.523,0.004-30.662,0.012l-100.365,0.269l-475.838,3.481l-1194.642-2.104
			l-842.213,0.731l0.133-1148.638l-0.004-609.708c0.108-4.5,1.572-8.335,3.61-12.266c4.431-3.715,9.171-7.415,14.998-8.527
			c27.616-5.265,63.869-0.954,92.3-0.912l214.234,0.473l26.227-0.2l0.073-101.673c56.942,0.039,118.85,5.215,175.189-0.535
			l25.738,0.181l13.008-16.296c37.542-38.154,84.192-61.769,137.612-67.542c65.85-7.123,122.081,18.704,172.073,59.254
			l21.385,24.411c15.785,26.446,30.315,53.627,35.781,84.361c6.734,37.889,0.904,85.885,0.831,124.635
			c-0.023,11.123-1.854,24.9,2.869,35.065l0.861-141.281l1037.223,1.696l2.204-1.658c-2.773-36.781-0.923-74.923-0.954-111.846
			l-0.092-198.973l0.027-157.865c0.011-29.262-1.877-59.95,1.211-89.012c2.227-20.965,10.389-41.496,17.669-61.185l15.015-28.888
			c34.719-57.139,84.915-82.512,147.869-98.404L3145.765,1227.373z"/>
		<path style="fill:#1A656E;" d="M1466.481,3088.888c8.331-1.319,15.142-1.992,23.1,1.204c11.154,4.481,19.804,12.354,24.35,23.573
			c4.373,10.792,4.788,21.692-0.173,32.466c-5.327,11.55-15.515,17.45-27.011,21.392c-8.408,1.312-17.469,2.719-25.631-0.492
			c-8.815-3.473-16.727-12.481-20.542-20.989c-4.935-11.008-6.654-23.473-1.642-34.769
			C1444.096,3099.631,1455.342,3093.55,1466.481,3088.888z"/>
		<path style="fill:#204F73;" d="M786.542,1873.242l25.738,0.181c-12.554,22.985-24.946,46.611-30.377,72.485
			c-6.658,31.739,3.331,153.642-5.612,169.619c-5.581-44.488-0.677-95.754-0.665-140.965l-164.346,0.888l0.073-101.673
			C668.296,1873.815,730.204,1878.992,786.542,1873.242z"/>
		<path style="fill:#E6E5D3;" d="M1336.923,3346.623l0.469-80.108l258.388-0.739l-0.25,79.835L1336.923,3346.623z"/>
		<path style="fill:#1A656E;" d="M1015.839,3409.115l241.681-0.265l0.023,122.119l-241.569,0.581L1015.839,3409.115z"/>
		<path style="fill:#1A656E;" d="M1015.285,3562.054l242.192,0.196l0.146,122.146l-242.35,0.75L1015.285,3562.054z"/>
		<path style="fill:#E66E38;" d="M593.596,3409l0.258,123.008l-242.007,1.281l-0.081-124.277L593.596,3409z"/>
		<path style="fill:#2C9B95;" d="M680.658,3411.058l248.485-1.065l-0.188,121.419l-248.588,0.142L680.658,3411.058z"/>
		<path style="fill:#2C9B95;" d="M680.423,3562.004l187.469-0.262c17.089-0.011,45.865-4.234,61.119,1.623L928.45,3682.9
			l-247.915,0.75L680.423,3562.004z"/>
		<path style="fill:#E66E38;" d="M352.107,3559.227l240.347,0.346l-0.223,126.246l-239.915,0.062L352.107,3559.227z"/>
		<path style="fill:#2C9B95;" d="M1337.223,3561.723l257.031-0.142l-0.088,121.542l-257,0.5L1337.223,3561.723z"/>
		<path style="fill:#E6E5D3;" d="M1015.469,3345.039l-0.565-78.688l243.188,0.45l-0.361,78.592l-0.212,63.458l-241.681,0.265
			L1015.469,3345.039z"/>
		<path style="fill:#062C4F;" d="M1015.469,3345.039l242.262,0.354l-0.212,63.458l-241.681,0.265L1015.469,3345.039z"/>
		<path style="fill:#E6E5D3;" d="M351.604,3346.35l-0.013-79.535l242.512,0.219l-0.277,78.95L593.596,3409l-241.83,0.011
			L351.604,3346.35z"/>
		<path style="fill:#062C4F;" d="M351.604,3346.35l242.223-0.365L593.596,3409l-241.83,0.011L351.604,3346.35z"/>
		<path style="fill:#29BAC6;" d="M1383.946,2417.25c-9.496,2.573-16.458,11.842-23.35,18.592l-52.619,51.765l-232.504,230.604
			l-700.87-0.092l-0.784-601.531l5.575-4.381l5.925,4.211l0.292,591.085l584.958,0.454l-0.027-278.435l-213.461,0.342l-5.25-5.935
			l3.258-10.577c8.754-6.342,22.023-3.931,32.465-3.892c31.619,0.108,70.246,4.966,100.65-0.915l1.238-15.385
			c33.127,4.015,68.396,1.819,101.808,1.796c21.546-0.011,46.708,2.404,67.685-1.7l-0.188,13.581
			c7.461,5.496,19.523,3.277,28.546,3.285l82.427-0.273c11.765-0.069,22.831-2.392,32.931,4.046c0.55,4.9-0.377,9.296-1.235,14.092
			c-24,3.777-51.185,1.319-75.527,1.296l-143.108-0.239l-1.608,278.65l63.058-0.208c7.173-0.023,18.485,1.481,25.258-0.085
			c11.919-2.754,47.55-45.008,57.435-54.862l205.785-203.365c8.661-8.454,33.146-38.362,43.161-42.081
			c8.992-3.338,35.473,0.035,45.931,0.046l164.035,0.161l2.8,0.458c18.754,2.9,58.962-4.615,72.154,4.204l-4.781,4.969
			l-181.027-0.323C1445.465,2416.681,1413.158,2414.1,1383.946,2417.25z"/>
		<path style="fill:#062C4F;" d="M889.442,2393.162c33.127,4.015,68.396,1.819,101.808,1.796c21.546-0.011,46.708,2.404,67.685-1.7
			l-0.188,13.581c7.461,5.496,19.523,3.277,28.546,3.285l82.427-0.273c11.765-0.069,22.831-2.392,32.931,4.046
			c-15.227-2.865-33.8-0.923-49.411-0.881l-96.885,0.239l-301.265,0.1c8.754-6.342,22.023-3.931,32.465-3.892
			c31.619,0.108,70.246,4.966,100.65-0.915L889.442,2393.162z"/>
		<path style="fill:#E6E5D3;" d="M680.619,3346.05l-0.342-78.708l249.312,0.031l-0.073,78.7l-0.373,63.919l-248.485,1.065
			L680.619,3346.05z"/>
		<path style="fill:#062C4F;" d="M680.619,3346.05l248.896,0.023l-0.373,63.919l-248.485,1.065L680.619,3346.05z"/>
		<path style="fill:#2C9B95;" d="M1336.923,3346.623l258.608-1.011l1.508,136.388c-0.027,13.073,3.046,35.511-3.704,46.765
			c-12.396,6.169-46.942,2.365-61.831,2.392l-194.277,0.223l-0.277-122.177L1336.923,3346.623z"/>
		<path style="fill:#062C4F;" d="M1336.923,3346.623l258.608-1.011l1.508,136.388c-0.027,13.073,3.046,35.511-3.704,46.765
			l0.2-120.334l-256.585,0.773L1336.923,3346.623z"/>
		<path style="fill:#2C9B95;" d="M2700.761,3496.854l246.408,50.308l-21.746,131.577c-3.612,22.138-9.635,46.046-10.408,68.362
			l-3.481,0.292l-193.758-0.162L2700.761,3496.854z"/>
		<path style="fill:#1A656E;" d="M312.417,3086.004l1065.234,0.004l-0.589,97.846l-1064.346-0.838L312.417,3086.004z"/>
		<path style="fill:#198899;" d="M1196.8,2119.362c27.185-0.177,105.404-9.142,123.561,10.023c6.735,7.104,9.923,16.989,8.95,26.688
			c-0.981,9.808-5.958,17.881-13.715,23.858c-20.523,15.819-85.796,8.157-112.442,8.061l0.262,114.431
			c-45.765-0.204-98.623,4.931-143.531-1.119c-0.119,29.6,2.858,62.812-0.95,91.954c-20.977,4.104-46.138,1.688-67.685,1.7
			c-33.411,0.023-68.681,2.219-101.808-1.796c-3.835-29.015-0.842-62.173-0.965-91.654l-136.838,1.938l-0.058-115.254
			c-29.315,0.131-78.654,7.204-102.746-9.812c-6.027-8.335-9.765-15.073-9.735-25.635c0.027-8.923,3.385-16.996,10.077-22.988
			c21.023-18.827,97.438-9.904,126.408-9.781L1196.8,2119.362z"/>
		<path style="fill:#E49137;" d="M888.477,2301.508l171.408-0.204c-0.119,29.6,2.858,62.812-0.95,91.954
			c-20.977,4.104-46.138,1.688-67.685,1.7c-33.411,0.023-68.681,2.219-101.808-1.796
			C885.608,2364.146,888.6,2330.989,888.477,2301.508z"/>
		<path style="fill:#C2D8BB;" d="M1196.8,2119.362c27.185-0.177,105.404-9.142,123.561,10.023c6.735,7.104,9.923,16.989,8.95,26.688
			c-0.981,9.808-5.958,17.881-13.715,23.858c-20.523,15.819-85.796,8.157-112.442,8.061l-451.573,0.2
			c-29.315,0.131-78.654,7.204-102.746-9.812c-6.027-8.335-9.765-15.073-9.735-25.635c0.027-8.923,3.385-16.996,10.077-22.988
			c21.023-18.827,97.438-9.904,126.408-9.781L1196.8,2119.362z"/>
		<path style="fill:#84B5A9;" d="M825.288,1857.127c37.542-38.154,84.192-61.769,137.612-67.542
			c65.85-7.123,122.081,18.704,172.073,59.254l21.385,24.411c15.785,26.446,30.315,53.627,35.781,84.361
			c6.734,37.889,0.904,85.885,0.831,124.635c-0.023,11.123-1.854,24.9,2.869,35.065l0.962,2.05l-421.215,0.615l0.708-4.45
			c8.942-15.977-1.046-137.881,5.612-169.619c5.431-25.873,17.823-49.5,30.377-72.485L825.288,1857.127z"/>
		<path style="fill:#204F73;" d="M387.188,2948.15l438.038-0.55l12.65-0.277l94.604,0.073l17.112-0.508l615.365,0.008l-0.154,99.562
			l-1211.146-4.173c-15.839-13.696-30.015-26.892-31.709-49.123c-0.895-11.742,4.498-24.05,12.353-32.539
			c12.125-13.104,23.853-13.819,40.575-14.677L387.188,2948.15z"/>
		<path style="fill:#1EA1A3;" d="M477.977,2952.138c8.842-3.004,15.246-2.915,24.465-1.862c8.535,5.235,15.919,10.865,21.189,19.569
			c5.038,8.315,6.119,17.092,3.804,26.4c-3.119,12.546-12.015,18.092-22.315,24.265c-6.158,1.569-12.838,2.166-19.212,1.981
			c-9.046-0.265-17.461-5.719-22.996-12.65c-7.319-9.154-9.296-19.112-7.115-30.427
			C458.227,2966.815,467.915,2958.865,477.977,2952.138z"/>
		<path style="fill:#1EA1A3;" d="M702.481,2952.138c9.458-3.112,17.608-1.969,27.254-0.931c6.046,4.35,13.742,9.119,17.05,16
			c4.95,10.288,6.35,21.765,2.681,32.646c-4.25,12.623-12.408,16.023-23.146,21.8c-6.085,0.458-12.6,1.123-18.654,0.185
			c-10.142-1.573-19.508-7.558-25.142-16.092c-5-7.577-7.165-16.485-4.938-25.419C681.2,2965.842,690.465,2959.154,702.481,2952.138
			z"/>
		<path style="fill:#1EA1A3;" d="M591.277,2952.138l18.092-1.596c8.827-0.239,15.95,5.269,21.904,11.342
			c9.923,10.131,10.796,21.185,10.531,34.696c-5.158,12.612-10.081,16.919-21.511,23.931c-8.273,2.658-18.696,3.358-27.273,1.666
			c-8.873-1.75-16.842-8.642-21.431-16.289c-5.55-9.25-6.473-18.15-3.773-28.45C571.123,2964.838,580.765,2958.296,591.277,2952.138
			z"/>
		<path style="fill:#1EA1A3;" d="M374.876,2945.946l12.312,2.204c6.062,2.546,11.008,5.908,15.792,10.373
			c8.961,8.365,14.011,20.004,13.585,32.446c-0.319,9.3-5.346,19.081-12.658,24.777c-7.6,5.916-18.031,9.489-27.632,8.212
			c-11.219-1.489-21.647-6.85-28.044-16.654c-5.228-8.011-7.445-17.765-5.059-27.034
			C347.872,2962.019,359.654,2955.004,374.876,2945.946z"/>
		<path style="fill:#1EA1A3;" d="M932.481,2947.396l17.112-0.508l12.823,7.996c8.765,6.662,14.496,15.535,15.515,26.592
			c1.142,12.389-0.704,21.962-9.196,31.469c-6.565,7.354-15.511,12.515-25.561,12.562c-10.385,0.05-21.035-5.392-28.162-12.854
			c-9.554-10.004-9.088-20.358-8.961-33.165C912.708,2965.338,920.6,2957.412,932.481,2947.396z"/>
		<path style="fill:#1EA1A3;" d="M837.877,2947.323c8.104,5.158,15.681,10.023,20.831,18.365
			c7.861,12.742,7.519,23.731,4.331,37.677c-4.358,6.188-8.412,11.623-15.377,15.054c-9.931,4.896-24.081,5.327-34.423,1.539
			c-10.069-3.688-19.038-12.223-22.442-22.511c-2.808-8.481-1.492-18.7,2.781-26.454c7.615-13.815,17.038-18.888,31.65-23.392
			L837.877,2947.323z"/>
		<path style="fill:#011537;" d="M1195.839,2117.312l0.861-141.281l1037.223,1.696c-57.289,72.654-104.431,153.469-152.942,232.104
			l-118.719,197.054l-376.427,0.419l-164.035-0.161c-10.458-0.011-36.939-3.385-45.931-0.046
			c-10.015,3.719-34.5,33.627-43.161,42.081l-205.785,203.365c-9.885,9.854-45.515,52.108-57.435,54.862
			c-6.773,1.565-18.085,0.062-25.258,0.085l-63.058,0.208l1.608-278.65l143.108,0.239c24.342,0.023,51.527,2.481,75.527-1.296
			c0.858-4.796,1.785-9.192,1.235-14.092c-10.1-6.438-21.165-4.115-32.931-4.046l-82.427,0.273
			c-9.023-0.008-21.085,2.212-28.546-3.285l0.188-13.581c3.808-29.142,0.831-62.354,0.95-91.954
			c44.908,6.05,97.765,0.916,143.531,1.119l-0.262-114.431c26.646,0.096,91.919,7.758,112.442-8.061
			c7.758-5.977,12.735-14.05,13.715-23.858c0.973-9.7-2.215-19.584-8.95-26.688c-18.158-19.165-96.377-10.2-123.561-10.023
			L1195.839,2117.312z"/>
		<path style="fill:#2C9B95;" d="M3145.765,1227.373c15.073,72.038,46.996,121.446,97.115,174.973
			c0.031,12.135,3.088,107.019,0.308,112.185c-1.092,2.027-3.1,3.404-4.65,5.104l-7.904,1.146
			c46.85,73.569,102.596,143.473,153.877,214.215l64.808,89.654c9.677,12.7,19.258,27.454,31.104,38.146l3.362,3.865l-0.204,943.273
			l-1.465,45.985l-340.362-0.873l-75.485,0.054c-10.654,0.027-25.919-1.485-36.104,1.596c-5.223,1.581-15.638,10.223-19.573,14.169
			c-16.858,16.892-49.584,218.538-59.935,258.004c22.665-0.077,50.942,13.131,72.842,19.608l235.75,74.104
			c15.373,3.661,38.423,7.965,47.873,22.235c8.258,12.469,11.162,29.938,7.823,44.485c-2.285,9.95-11.546,18.665-20.023,23.877
			c-8.335,5.123-17.385,7.334-27.131,7.404l-1.669,14.035c10.438,5.104,19.608,8.131,23.181,20.654l4.2,27.469
			c-6.258,14.496-14.215,28.25-29.531,34.623l-6.65,2.223l-2.719,0.915c-9.742,2.869-21.935-0.923-31.65-3.023l10.119,23.123
			c4.319,17.665,6.75,31.361-3.354,47.75c-7.388,11.988-18.977,20.488-32.208,24.781l-15.888-1.635l2.539,20.508
			c0.6,15.865-2.608,28.6-13.469,40.623c-8.277,9.162-17.754,14.904-30.469,15.423c-23.662,0.958-54.446-10.446-77.723-15.6
			c-37.677-8.346-78.769-13.739-115.331-25.288l-246.408-50.308l-136.658-43.669l-38.688-13.504l-34.623,95.754
			c-9.669,0.269-23.842-6.327-33.2-9.334l-76.569-24.654l-321.15-101.115l-273.131-83.454
			c-17.004-5.985-33.712-14.289-48.781-24.208c-59.096-38.888-102.181-103.654-116.123-173.023
			c-10.385-51.662-7.615-109.419,9.315-159.373c15.177-44.785,39.358-82.104,64.065-121.873l78.704-127.281l178.815-290.181
			l-388.819-1.062l-120.227,0.127c-17.823-0.004-40.892,2.627-57.942-2.188l-1.804-0.565c29.212-3.15,61.519-0.569,91.035-0.638
			l181.027,0.323l4.781-4.969c-13.192-8.819-53.4-1.304-72.154-4.204l-2.8-0.458l376.427-0.419l118.719-197.054
			c48.511-78.635,95.654-159.45,152.942-232.104l2.204-1.658c-2.773-36.781-0.923-74.923-0.954-111.846l-0.092-198.973
			l0.027-157.865c0.011-29.262-1.877-59.95,1.211-89.012c2.227-20.965,10.389-41.496,17.669-61.185l15.015-28.888
			c34.719-57.139,84.915-82.512,147.869-98.404L3145.765,1227.373z"/>
		<path style="fill:#91400E;" d="M2633.75,3144.715c5.346,2.069,20.104,5.877,23.381,9.761
			c-7.369,40.469-24.839,79.615-37.15,118.865l-55.877,179.842l-38.688-13.504L2633.75,3144.715z"/>
		<path style="fill:#F9FDFA;" d="M3480.423,1862.796c-21.004,23.104-38.338,49.7-56.919,74.785l-123.873,172.327l-335.208-588.427
			l266.211-0.7c46.85,73.569,102.596,143.473,153.877,214.215l64.808,89.654C3458.996,1837.35,3468.577,1852.104,3480.423,1862.796z
			"/>
		<path style="fill:#011537;" d="M2633.75,3144.715l17.219-47.554l-712.208-241.315c24.054-1.042,56.723,12.754,80.558,18.9
			c83.654,21.577,168.089,42.138,249.95,69.858c28.723-47.173,64.396-89.519,96.461-134.346
			c63.858-89.281,126.227-182.112,179.708-278.012c8.827-15.831,26.315-38.9,31.173-55.711c1.188-4.112-2.381-18.627-2.996-23.416
			l-11.754-86.915l-41.358-309.746c-4.835-40.669-12.896-82.239-13.958-123.123c8.531,20.869,10.646,46.415,14.669,68.627
			l25.408,148.465l126.4,1006.523l-15.892-2.473C2653.854,3150.592,2639.096,3146.785,2633.75,3144.715z"/>
		<path style="fill:#C05D1E;" d="M2673.023,3156.95l230.673-89.881c9.369,14.954,18.334,42.327,30.631,53.946
			c3.123,2.95,12.135,5.838,16.331,7.854c22.665-0.077,50.942,13.131,72.842,19.608l235.75,74.104
			c15.373,3.661,38.423,7.965,47.873,22.235c8.258,12.469,11.162,29.938,7.823,44.485c-2.285,9.95-11.546,18.665-20.023,23.877
			c-8.335,5.123-17.385,7.334-27.131,7.404l-1.669,14.035c10.438,5.104,19.608,8.131,23.181,20.654l4.2,27.469
			c-6.258,14.496-14.215,28.25-29.531,34.623l-6.65,2.223l-2.719,0.915c-9.742,2.869-21.935-0.923-31.65-3.023l10.119,23.123
			c4.319,17.665,6.75,31.361-3.354,47.75c-7.388,11.988-18.977,20.488-32.208,24.781l-15.888-1.635l2.539,20.508
			c0.6,15.865-2.608,28.6-13.469,40.623c-8.277,9.162-17.754,14.904-30.469,15.423c-23.662,0.958-54.446-10.446-77.723-15.6
			c-37.677-8.346-78.769-13.739-115.331-25.288l-246.408-50.308l-136.658-43.669l55.877-179.842
			c12.312-39.25,29.781-78.396,37.15-118.865L2673.023,3156.95z"/>
		<path style="fill:#202437;" d="M3233.073,3440.6l-387.615-122.573c0-7.865,1.135-8.211,5.796-14.165l371.7,113.615
			L3233.073,3440.6z"/>
		<path style="fill:#202437;" d="M3184.162,3532.004c-37.304-18.712-80.166-28.858-119.954-41.119l-205.519-63.565
			c-16.058-5.188-44.773-9.946-57.662-20.092c1.269-7.038,3.504-9.6,8.542-14.558l257.385,81.054
			c35.415,11.177,83.431,19.069,114.669,37.773L3184.162,3532.004z"/>
		<path style="fill:#202437;" d="M3266.123,3334.615c-14.658,0.692-29.85-6.096-43.692-10.531l-71.923-22.312l-223.535-68.054
			c-22.058-6.85-59.762-12.631-77.327-26.815c0.673-6.304,2.277-9.119,6.065-14.146l412.081,127.823L3266.123,3334.615z"/>
		<path style="fill:#011537;" d="M3145.765,1227.373c15.073,72.038,46.996,121.446,97.115,174.973
			c0.031,12.135,3.088,107.019,0.308,112.185c-1.092,2.027-3.1,3.404-4.65,5.104l-7.904,1.146
			c-25.942-9.685-73.242-3.315-101.461-3.254c-52.388,0.115-106.246-2.527-158.365,1.516
			c-100.069,7.758-202.258,38.488-293.258,80.104c-174.173,79.65-336.989,214.996-441.423,376.923
			c-2.773-36.781-0.923-74.923-0.954-111.846l-0.092-198.973l0.027-157.865c0.011-29.262-1.877-59.95,1.211-89.012
			c2.227-20.965,10.389-41.496,17.669-61.185l15.015-28.888c34.719-57.139,84.915-82.512,147.869-98.404L3145.765,1227.373z"/>
		<path style="fill:#011537;" d="M3845.008,1223.958l557.954,1.462l143.885,0.573c27.846,0.146,58.192-1.815,85.615,3.458
			c36.846,7.096,70.231,27.989,96.039,54.654c24.346,25.127,39.5,53.492,50.5,86.577c9.961,30.046,6.731,64.031,6.769,95.342
			l0.231,134.331l0.27,380.096l1014.615-1.335l-0.577,144.385l3.116,0.55l410.461-0.212l0.346-145.308l487.73-1
			c12.808,0.496,16.654,4.954,24.77,13.923c3.884,13.627,2.346,28.704,2.269,42.796l-0.346,78.523l0.231,246.431l0.808,1396.854
			l-1558.192-0.473l-521.385-0.346l-240.5-0.965c-28.692-0.042-71.615,5.665-97.769-2.135c0.615-5.75,1.961-11.888,0.615-17.585
			l21.423-265.565l-288,66.888c-29.577,8.761-61.193,13.473-91.309,20.519l-94.346,22.792c-9.461,2.031-23.265,5.9-32.654,2.431
			c-10.15-3.754-19.485-8.346-26.938-16.4c-15.562-16.819-14.481-35.108-13.6-56.45c-13.154-1.927-23.358-4.219-35.065-10.638
			c-9.492-8.873-23.408-20.115-26.177-33.531c-4-19.392,5.046-33.073,15.046-48.669c-16.165-1.277-29.039-3.654-43.435-11.331
			l-12.839-10.142c-17.273,20.073-36.323,41.792-57.881,57.312c-49.069,35.323-112.777,51.419-172.515,40.727
			c-71.869-12.865-120.035-51.6-160.669-109.758l-4.2-27.469c-3.573-12.523-12.742-15.55-23.181-20.654l1.669-14.035
			c9.746-0.069,18.796-2.281,27.131-7.404c8.477-5.212,17.739-13.927,20.023-23.877c3.338-14.546,0.435-32.015-7.823-44.485
			c-9.45-14.269-32.5-18.573-47.873-22.235l-235.75-74.104c-21.9-6.477-50.177-19.685-72.842-19.608
			c10.35-39.465,43.077-241.111,59.935-258.004c3.935-3.946,14.35-12.589,19.573-14.169c10.185-3.081,25.45-1.569,36.104-1.596
			l75.485-0.054l340.362,0.873l1.465-45.985l0.204-943.273l-3.362-3.865c-11.846-10.692-21.427-25.446-31.104-38.146l-64.808-89.654
			c-51.281-70.742-107.027-140.646-153.877-214.215l7.904-1.146c1.55-1.7,3.558-3.077,4.65-5.104
			c2.781-5.165-0.277-100.05-0.308-112.185c14.95,12.742,29.419,24.669,46.258,34.923c42.092,22.904,80.265,41.096,128.088,49.615
			c94.7,16.869,214.077,1.204,293.9-55.035C3785.296,1379.592,3829.581,1313.181,3845.008,1223.958z"/>
		<path style="fill:#C0EDEC;" d="M6524.846,2538.461c6.154-2.292,12.385-1.496,18.846-1.219c8.192,8.235,10.192,9.758,12.115,21.731
			c-4.269,11.438-5.5,12.35-15.539,19.431c-4.115,0.765-9.384-0.011-13.654-0.127c-8.923-6.411-9.808-7.846-13.923-18.077
			C6514.692,2548.239,6516.615,2546.688,6524.846,2538.461z"/>
		<path style="fill:#3DD4D7;" d="M4804.5,3652.088l527.615,0.754l-0.5,11.885l-526.115,0.346L4804.5,3652.088z"/>
		<path style="fill:#E66E38;" d="M4805.5,3665.073c-0.847,2.254-1.693,4.769-3.116,6.765c-4.808,6.746-10.654,10.181-18.923,11.042
			c-23.423,2.435-84.961,8.569-102.308-5.958c-6.423-11.95-5.461-17.419-5.308-30.769c3.039-4.185,6.5-8.665,11.077-11.277
			c12.192-7.015,90.269-7.296,103.346-1.315c9.154,4.185,10.616,9.923,14.231,18.527L4805.5,3665.073z"/>
		<path style="fill:#1EA1A3;" d="M5900.615,3260.112c11.077,2.954,22.885,5.211,32.539,11.711l-64.692,162.846
			c-8.23,21.577-15.192,50.527-27.192,69.996c-5,8.131-15.384,17.4-24.346,21.104c-8.154,3.381-17.616,5.312-26.27,7.062
			l-0.192-28.327c8.808-4.342,18.039-8.977,23.77-17.323c14.461-21.089,21.538-54.15,30.461-78.635L5900.615,3260.112z"/>
		<path style="fill:#29BAC6;" d="M6628.615,2677.969l1.039,282.204l-179.385-0.319l2.116-12.496l164.269-0.827l5.346-4.646
			l2.808-75.219c-4.077-5.669-2.961-13.761-3.077-20.511c-0.308-19.115,3.423-56.735-4.77-73.054l-163.154-0.389l0.192,75.639
			l-11.308,1.615l-0.731-162.004l11.577-0.488l0.039,68.377l104.692,0.108c18.808,0.008,39.462,1.681,58-0.815
			c1.962-18.992,4.462-50.135-1.961-68.019l9.769-1.669L6628.615,2677.969z"/>
		<path style="fill:#1A656E;" d="M6441.961,2687.961l11.577-0.488l0.039,68.377l104.692,0.108c18.808,0.008,39.462,1.681,58-0.815
			c-13.269,7.362-33.692,4.292-49.038,4.304l-102.654,0.054c-7.653,0.008-8.539-1.681-13.077,4.604l3.346,5.181
			c25.885-0.073,148.192-5.869,162.115,3.815l-163.154-0.389l0.192,75.639l-11.308,1.615L6441.961,2687.961z"/>
		<path style="fill:#011537;" d="M6609.192,2686.873l5.115,0.25c6.423,17.885,3.923,49.027,1.961,68.019
			c-18.538,2.496-39.192,0.823-58,0.815l-104.692-0.108l-0.039-68.377L6609.192,2686.873z"/>
		<path style="fill:#3DD4D7;" d="M6456,2674.215l160.884,0.642c-0.077-44.554-5.423-354.769,3.039-368.873l6.461-0.569
			c5.654,8.45,3.654,20.173,3.615,30.085l-0.423,75.496l-0.961,266.973l-4.539,7.485l-9.769,1.669l-5.115-0.25l-155.654,0.6
			l-11.577,0.488l0.231-43.704l-1.5-249.435c-0.077-22.135-6.116-72.284,3.884-88.996l7.039,0.158
			c9.616,21.073,2.846,71.781,2.654,95.723l-0.769,235.527C6453.692,2647.577,6451.885,2665.058,6456,2674.215z"/>
		<path style="fill:#011537;" d="M6454,2848.35l-0.192-75.639l163.154,0.389l0.192,75.088L6454,2848.35z"/>
		<path style="fill:#29BAC6;" d="M5172.039,2596.838l154.808-141.265c12.308-11.319,32.769-36.073,46.73-42.988
			c7.27-3.612,759.5-1.815,836.616,0.542c4.231,0.131,6.461,1.719,9.846,4.062l-1.039,6.842
			c-16.423,5.773-43.038,2.308-60.615,2.285l-139.116-0.416l-0.23,186.269l-11,3.054l0.038-189.477l-507.769,0.612l-92.577-0.069
			c-5.923-0.004-22.308-1.989-27.308-0.023c-15.962,6.304-44.308,39.4-57.692,51.823l-141.962,129.304L5172.039,2596.838z"/>
		<path style="fill:#011537;" d="M6616.961,2773.1c8.192,16.319,4.461,53.938,4.77,73.054c0.116,6.75-1,14.842,3.077,20.511
			l-2.808,75.219l-5.346,4.646l-164.269,0.827l-2.116,12.496l-7.308-4.419l-0.269-105.469l11.308-1.615l163.154-0.162
			L6616.961,2773.1z"/>
		<path style="fill:#23A8B8;" d="M6616.961,2773.1c8.192,16.319,4.461,53.938,4.77,73.054c0.116,6.75-1,14.842,3.077,20.511
			l-2.808,75.219l-5.346,4.646l0.615-85.042l-165.115,0.123l0.23,85.746l-2.116,12.496l-7.308-4.419l-0.269-105.469l11.308-1.615
			l163.154-0.162L6616.961,2773.1z"/>
		<path style="fill:#E49137;" d="M5912.885,2297.315l177.692-0.019l-0.115,105.896l-177.538-0.023L5912.885,2297.315z"/>
		<path style="fill:#C2D8BB;" d="M6213.885,2123.838l120.769-0.642l0.077,58.538l-114.192,0.031l-435.5,0.058l-91.846,0.035
			l0.231-56.796c32.5,0.346,73.423,5.581,104.846-1.085l2.039-0.477l3.116,0.55L6213.885,2123.838z"/>
		<path style="fill:#2C9B95;" d="M5785.039,2181.823l435.5-0.058l0.038,116.469l-130-0.938l-177.692,0.019l-128.27,0.735
			L5785.039,2181.823z"/>
		<path style="fill:#C05D1E;" d="M3242.881,1402.346c14.95,12.742,29.419,24.669,46.258,34.923
			c81.5,129.373,201.539,220.319,345.261,269.573c-18.865,24.465-106.388,131.015-106.565,152.042l-9.308,9.542l-34.742-1.765
			l-3.362-3.865c-11.846-10.692-21.427-25.446-31.104-38.146l-64.808-89.654c-51.281-70.742-107.027-140.646-153.877-214.215
			l7.904-1.146c1.55-1.7,3.558-3.077,4.65-5.104C3245.969,1509.365,3242.912,1414.481,3242.881,1402.346z"/>
		<path style="fill:#E66E38;" d="M6332.692,3398.146l-2.846-289.796l325.539,0.888l-0.539,288.573L6332.692,3398.146z"/>
		<path style="fill:#F9FDFA;" d="M6427.231,3263.246c30.384-4.692,68.461-0.685,99.615-0.569
			c10.577,0.038,24.577-2.104,33.962,2.923v10.081l-4.423,2.146c-9.27,2.854-24.039,0.819-34.154,0.85
			c-20.692,0.065-81.885,5.838-96.885-3.462L6427.231,3263.246z"/>
		<path style="fill:#F9FDFA;" d="M6436.692,3188.035l89.769-0.577c10.039-0.035,23.192-1.989,32.423,2.284l1.461,6.773l-6.384,7.842
			l-96.154,0.15c-5.769,0.011-22.961,2.027-26.884,0.042c-2.077-1.031-3.462-3.035-5.193-4.55l0.961-9.612L6436.692,3188.035z"/>
		<path style="fill:#F9FDFA;" d="M6427.192,3331.623c10.539-2.804,24.539-1.019,35.654-1.062c22.73-0.085,80.5-6.385,97.962,3.704
			v9.404c-2.462,1.477-4.193,2.631-7.077,3.096c-28.346,4.581-65.192,0.6-94.384,0.485c-10.27-0.042-24.808,2.377-33.347-3.662
			L6427.192,3331.623z"/>
		<path style="fill:#198899;" d="M6248.77,2716.315c64.846,75.862,97.23,167.308,89.269,267.473
			c-6.577,82.981-45.385,165.2-109.346,219.481c-67.769,57.504-155.654,86.1-244.231,78.485c-16.885-1.45-35.154-5.012-51.308-9.931
			c-9.654-6.5-21.461-8.758-32.539-11.711c-16.423-1.546-34.962-11.812-49.039-20.058L5906,3108.065
			c30.115,18.142,59.653,30.658,95.23,34.108c48.308,4.685,100.154-9.123,137.731-40.554
			c42.346-35.423,70.577-81.819,74.808-137.788c4.346-57.723-11.5-108.219-49.769-152.185L6248.77,2716.315z"/>
		<path style="fill:#1EA1A3;" d="M6332.692,3398.146l322.154-0.335l-0.115,291.258l-322.462,0.135v-72.135l-540.308-0.073
			l-0.538-29.746l541.423,1.569L6332.692,3398.146z"/>
		<path style="fill:#F9FDFA;" d="M6425.808,3601.708c14.269-2.931,32-0.973,46.616-0.992l89.923,0.992l3.192,6.838l-4.73,9.419
			l-6.847,0.346l-95.654,0.869c-7.192,0.061-23.423,2.435-29.115,0.25c-1.423-0.55-4.654-4.512-5.923-5.754L6425.808,3601.708z"/>
		<path style="fill:#F9FDFA;" d="M6425.423,3461.539c16.884-5.996,121.653-4.635,140.5,0l0.269,13.677l-2.731,0.946
			c-9.692,3.131-24.154,1.277-34.577,1.385l-74.616,0.473c-9.73,0.015-20.269,1.596-29.192-2.804L6425.423,3461.539z"/>
		<path style="fill:#F9FDFA;" d="M6426.308,3533.335c42.616-6.016,94.385-1.485,137.884-0.158c3.154,8.473,1.77,9.131-1.307,17.25
			l-135.385-0.504l-4.039-6.335L6426.308,3533.335z"/>
		<path style="fill:#198899;" d="M5819.654,3220.446c-17.692-11.854-35.615-27.739-50.269-43.173
			c-63.923-67.269-94.846-149.935-92.116-242.785c2.539-85.919,39.616-168.677,102.654-227.354
			c60.23-56.081,144.923-94.677,228.115-91.911l11-3.054l1.769,0.619c18.269,6.008,39.692,4.565,58.769,8.304
			c58.27,11.381,111.923,41.135,156.154,80.1l13.039,15.123l-84.77,95.331c-6.923-5.565-12.961-12.593-19.192-18.969
			c-38.346-31.739-87.077-47.296-137-42.565c-54.615,5.173-104.5,24.523-139.846,68.011c-35.962,44.219-50,96.2-43.423,152.535
			c3.115,26.527,12.654,53.454,25.808,76.638c4.308,7.608,26.577,33.604,25.769,40.188c-1.192,9.469-10.962,25.642-15.115,35.331
			L5819.654,3220.446z"/>
		<path style="fill:#C2D8BB;" d="M6144.808,2792.677l90.923-91.485l13.039,15.123l-84.77,95.331
			C6157.077,2806.081,6151.039,2799.054,6144.808,2792.677z"/>
		<path style="fill:#E66E38;" d="M5332.115,3652.842l-0.077-137.9c0.038-20.442-2.692-45.704,1.115-65.65
			c1.346-7.127,4.923-14.284,9.77-19.669c16.73-18.492,62.038-12.362,86.154-12.569l226.346-0.584
			c33.346,0.039,71.615-3.527,104.461,1.477c8.616,1.315,14.847,4.627,21,10.938c17.384,17.908,10.577,52.8,9.577,75.619
			l0.192,28.327l0.77,54.419l0.538,29.746c-0.269,19.8,4.077,50.865-11.077,65.873c-4.846,4.8-9.577,8-16.461,8.781
			c-45.616,5.146-96.692,0.512-142.885,0.535l-251.923-0.492c-14.308-0.562-22.5-5.254-31.539-16.196
			c-2.653-3.2-4.577-7.081-6.461-10.769L5332.115,3652.842z"/>
		<path style="fill:#FCECDB;" d="M5547.539,3533.335c11.769-4.315,32.038-2.154,44.846-2.115l107.077,0.604l4.616,6.585l-4.539,8.6
			l-109.308,0.138c-13.27-0.042-32.923,2.458-44.577-3.5L5547.539,3533.335z"/>
		<path style="fill:#FCECDB;" d="M5545.231,3605.127l2.23-0.692c15.539-3.615,144.692-3.181,153.923,2.404l-0.846,11.965
			l-4.116,0.981c-33.5,5.154-75.077,0.808-109.308,0.812c-11.039,0-34.077,2.827-42.5-3.504L5545.231,3605.127z"/>
		<path style="fill:#204F73;" d="M5422.384,3482.05c7.385-2.592,18.616-2.919,26.308-1.965c11.808,1.458,24.577,9.246,31.692,18.692
			c7.654,10.169,13.308,23.585,11.192,36.45c-3.423,20.812-15.154,31.777-31.846,43.208c-12.039,3.154-22.846,5.904-35,1.612
			c-14.039-4.961-25.27-14.577-31.616-28.104c-5.615-11.862-5.461-28.712-0.692-40.823
			C5398.461,3495.739,5408.077,3489.108,5422.384,3482.05z"/>
		<path style="fill:#EDE0A4;" d="M5819.654,3220.446l41.346-97.631c4.153-9.688,13.923-25.862,15.115-35.331
			c0.808-6.585-21.461-32.581-25.769-40.188c-13.154-23.185-22.693-50.112-25.808-76.638
			c-6.577-56.335,7.461-108.315,43.423-152.535c35.346-43.489,85.231-62.838,139.846-68.011c49.923-4.731,98.654,10.827,137,42.565
			c6.231,6.377,12.269,13.404,19.192,18.969c38.269,43.965,54.115,94.461,49.769,152.185
			c-4.23,55.969-32.461,102.365-74.808,137.788c-37.577,31.431-89.423,45.239-137.731,40.554
			c-35.577-3.45-65.115-15.965-95.23-34.108l-54.424,131.988L5819.654,3220.446z"/>
		<path style="fill:#C05D1E;" d="M6000.923,2841.319c24.038-0.981,41.884-0.815,63.961,9.981
			c26.769,13.069,46.808,35.612,55.884,64.073c8.77,27.619,4.077,57.969-9.423,83.25c-15.654,29.289-40.577,42.746-71.27,51.635
			c-20.961,2.234-43.884,0.773-63.192-8.266c-25.77-12.05-48.5-33.477-58.116-60.819c-8.654-24.723-7.269-56.846,4.692-80.319
			C5940.461,2867.465,5966.731,2852.627,6000.923,2841.319z"/>
		<path style="fill:#EDE0A4;" d="M6006,2889.381c10.192-0.623,19.846-1.127,29.808,1.65c14.538,4.065,28.692,16.5,35.269,29.989
			c6.27,12.838,7.231,29.685,2.308,43.084c-7.385,20.254-21.923,29.204-40.654,37.835c-9.154,0.35-19.577,1.142-28.5-0.969
			c-15.462-3.673-30.116-14.908-37.846-28.761c-6.385-11.419-8.346-26.827-4.654-39.412
			C5968.269,2910.461,5986.539,2899.396,6006,2889.381z"/>
		<path style="fill:#204F73;" d="M6015.153,2911.112c5.039-0.208,10.693,0.619,15.578,1.915
			c11.038,2.916,16.846,12.812,22.077,22.015c1.077,8.662,2.73,18.108-1.192,26.285c-6.115,12.673-14.923,16.135-27.461,19.808
			c-5.5,0.135-11.654,0.269-16.846-1.792c-9.308-3.661-17.231-10.739-20.384-20.369c-3.231-9.881-2.077-21.623,2.884-30.769
			C5995.692,2917.442,6004,2914.138,6015.153,2911.112z"/>
		<path style="fill:#2C9B95;" d="M3634.4,1706.842l140.692-188.146l266.562,13.142c78.808,15.581,157.692,26.681,234.77,50.55
			c68.846,21.331,134.808,49.885,195.73,88.611c167.231,106.285,292.538,274.027,401.27,436.4l208.73,337.8
			c29.077,47.715,70.27,99.954,89.885,151.638l8.73,10.554l115,196.711c22.116,38.162,48.846,77.581,65.577,118.223
			c25.923,62.935,30.385,137.273,11.346,202.735c-21.231,72.854-68.539,136.196-135.692,172.546
			c-32.846,17.777-67.577,26.25-103.231,36.531l-142.384,40.938L4643.5,3478.104l-163.616,49.108l-28.23-86.812l-60.5,15.542
			l-57.269,13.046l-288,66.888c-29.577,8.761-61.193,13.473-91.309,20.519l-94.346,22.792c-9.461,2.031-23.265,5.9-32.654,2.431
			c-10.15-3.754-19.485-8.346-26.938-16.4c-15.562-16.819-14.481-35.108-13.6-56.45c-13.154-1.927-23.358-4.219-35.065-10.638
			c-9.492-8.873-23.408-20.115-26.177-33.531c-4-19.392,5.046-33.073,15.046-48.669c-16.165-1.277-29.039-3.654-43.435-11.331
			l-12.839-10.142c-17.273,20.073-36.323,41.792-57.881,57.312c-49.069,35.323-112.777,51.419-172.515,40.727
			c-71.869-12.865-120.035-51.6-160.669-109.758l-4.2-27.469c-3.573-12.523-12.742-15.55-23.181-20.654l1.669-14.035
			c9.746-0.069,18.796-2.281,27.131-7.404c8.477-5.212,17.739-13.927,20.023-23.877c3.338-14.546,0.435-32.015-7.823-44.485
			c-9.45-14.269-32.5-18.573-47.873-22.235l-235.75-74.104c-21.9-6.477-50.177-19.685-72.842-19.608
			c10.35-39.465,43.077-241.111,59.935-258.004c3.935-3.946,14.35-12.589,19.573-14.169c10.185-3.081,25.45-1.569,36.104-1.596
			l75.485-0.054l340.362,0.873l1.465-45.985l0.204-943.273l34.742,1.765l9.308-9.542
			C3528.011,1837.858,3615.535,1731.308,3634.4,1706.842z"/>
		<path style="fill:#011537;" d="M3770.831,2388.8l2.45,14.388c-16.954,0.935-34.7,3.023-51.604,1.219l-2.927-6.115
			C3728.873,2389.15,3756.646,2390.265,3770.831,2388.8z"/>
		<path style="fill:#202437;" d="M4890.116,2897.473c26.308-11.908,161.808-67.785,181.808-62.392l2.769,4.911
			c-19.154,13.312-42.269,20.392-63.961,28.504l-98.077,35.908l-174.077,64.562l-6.923-4.688
			c15.654-9.481,35.308-16.192,52.115-23.596L4890.116,2897.473z"/>
		<path style="fill:#E66E38;" d="M4205.423,2806.985c8.961,0.481,19.115,1.396,27.73,3.965
			c12.846,3.842,24.923,15.192,30.577,27.196c6.923,14.731,7.616,32.431,1.77,47.584c-7.961,20.604-22.115,27.1-41.423,35.685
			c-10.384-0.635-23.769-0.727-33.5-4.473c-12.923-4.985-24.23-17.761-29.461-30.3c-5.654-13.523-7.23-30.246-1.231-43.908
			C4169.192,2821.585,4184.808,2814.658,4205.423,2806.985z"/>
		<path style="fill:#91400E;" d="M4316.615,3121.227c10.692-1.877,19.385-7.573,28.616-12.961l106.423,332.135l-60.5,15.542
			l-48.116-203.558C4333.577,3211.369,4317.077,3162.958,4316.615,3121.227z"/>
		<path style="fill:#F9FDFA;" d="M3483.785,1866.661l34.742,1.765c-1.465,1.692-3.381,3.081-4.392,5.077
			c-3.915,7.7,0.096,159.688,0.104,179.196l-0.6,803.954c-9.408,0.3-17.838,0.781-26.954-2.165
			c-3.896-13.604-2.723-30.346-3.104-44.554L3483.785,1866.661z"/>
		<path style="fill:#011537;" d="M4316.615,3121.227l192.846-1182.765c4.577,11.619-16.115,109.769-19.385,129.915l-65.153,411.65
			l208.115,340.265c28.769,46.989,55.461,102.496,90.077,144.954l8.539-0.969l6.923,4.688
			c-44.808,15.054-383.346,127.042-393.346,139.3C4336,3113.654,4327.308,3119.35,4316.615,3121.227z"/>
		<path style="fill:#F9FDFA;" d="M3634.4,1706.842l140.692-188.146l266.562,13.142l-339.85,576.765l-173.969-249.719
			C3528.011,1837.858,3615.535,1731.308,3634.4,1706.842z"/>
		<path style="fill:#062C4F;" d="M3770.831,2388.8c-3.031-23.519-1.258-52.831,5.058-75.638
			c2.919-10.546,13.473-28.931,12.642-38.854c-14.985-6.808-37.342-13.681-49.265-24.735l1.7-7.334
			c8.989-3.569,27.25,6.911,36.562,10.931l18.485,9.215c21.089-33.846,42.696-61.111,77.027-82.715
			c-7.269-12.619-30.242-44.973-28.654-57.331l9.692-4.388l31.654,52.535c34-15.335,64.038-26.011,101.962-27.75l-0.615-56.273
			l5.115-4.25l8.538,1.662c3.77,18.842,3,39.496,3.693,58.7c38.885,6.512,72.885,16.365,108.077,34.773l31.769-49.912l8.847,4.188
			c2.192,13.188-28.885,48.208-26.962,54.215c1.5,4.723,27.231,23.938,32.346,29.504c13.769,15.042,24.346,33.112,34.577,50.669
			l55.462-23.304c4.461,5.342,7.308,6.569,6.846,13.704c-17.692,9.477-38.116,14.796-56.692,22.581
			c15,38.523,21.154,70.323,16.577,111.285l-0.461,0.735l45.731,10.696l3.192,5.735l-4.077,7.942
			c-14.385-1.084-30.385-3.446-44.385-7.023c-18.846,36.477-32.846,68-57.115,101.865c12.654,10.554,29.423,21.681,38.885,35.073
			l-8.308,9.215c-14.23-4.388-30.807-23.208-42.23-33.165c-29.5,22.765-59.077,41.454-96.077,49.673l9.654,51.2l-6.385,6.519
			l-5.577-1.392l-14.077-52.892c-17.424,4.135-36.808,6.396-54.654,5.058c-7.038-0.527-41.5-8.058-46.192-6.388
			c-4,1.423-3.192,7.858-4.769,11.804c-4.577,11.496-10.346,37.846-19.962,44.142l-6.846-3.677
			c0.961-18.108,9.538-37.992,14.961-55.346c-31.846-16.235-57.846-34.039-84.838-57.419l-46.339,34.773l-5.942-5.523
			c1.565-13.289,29.15-31.558,39.965-40.992c-21.761-30.677-37.173-61.096-46.142-97.7L3770.831,2388.8z"/>
		<path style="fill:#F9FDFA;" d="M3840.035,2437.946c-8.827-17.565-16.585-38.889-18.542-58.458
			c-4.208-42.096,7.516-87.135,34.392-120.019c32.115-39.261,71.923-58.435,121.885-63.423c51.577-5.146,97.885,15.327,136.5,47.469
			c-49.808,15.965-62.615,37.369-91.615,78.027c-8.077,11.319-17.923,19.942-25.385,32.135
			c-8.308,13.608-16.115,32.65-27.654,43.496c-2.731,4.977-13.846,21.969-13.192,26.642c-24,28.046-36.308,33.688-73.615,36.704
			l-17.615,0.992l-9.692,1.173L3840.035,2437.946z"/>
		<path style="fill:#E49137;" d="M3840.035,2437.946c0.615-16.777,0.696-33.942,7.773-49.504
			c7.462-16.446,22.808-28.069,39.615-34.204c17.192-6.281,36.615-2.323,52.769,5.042c18.538,8.454,22.846,19.715,29.423,37.892
			c-2.731,4.977-13.846,21.969-13.192,26.642c-24,28.046-36.308,33.688-73.615,36.704l-17.615,0.992l-9.692,1.173L3840.035,2437.946
			z"/>
		<path style="fill:#F9FDFA;" d="M4114.269,2243.515l13.462,16.723c29.538,43.773,44.846,82.819,34.23,136.377
			c-8.154,41.204-35.692,77.858-70.269,101c-41.5,27.804-91.961,37.746-140.731,26.935c-36.654-8.123-72.461-32.789-95.461-61.865
			l9.692-1.173l17.615-0.992c37.308-3.015,49.615-8.658,73.615-36.704c-0.654-4.673,10.461-21.666,13.192-26.642
			c11.538-10.846,19.346-29.888,27.654-43.496c7.461-12.192,17.308-20.815,25.385-32.135
			C4051.654,2280.885,4064.461,2259.481,4114.269,2243.515z"/>
		<path style="fill:#E5A336;" d="M4114.269,2243.515l13.462,16.723c-6.808,20.738-13.039,31.146-30.577,44.358
			c-5.769,14.788-11.808,38.804-21.154,51.092c-9.423,12.335-41.846,26.323-55.692,33.365c-15.308,12.95-27.5,21.212-29.115,42.8
			l-0.385,7.923c-13.269,18.469-32.5,27.358-53.385,34.981c-10.308,5.096-20.731,14.715-30.115,21.631
			c-13.115-16.946-23.192-25.062-42.115-34.877l17.615-0.992c37.308-3.015,49.615-8.658,73.615-36.704
			c-0.654-4.673,10.461-21.666,13.192-26.642c11.538-10.846,19.346-29.888,27.654-43.496c7.461-12.192,17.308-20.815,25.385-32.135
			C4051.654,2280.885,4064.461,2259.481,4114.269,2243.515z"/>
		<path style="fill:#E49137;" d="M4020.308,2389.054c-1.154-1.915-1.385-2.062-2.192-4.485c-4.423-13,16.269-48.604,22.654-60.446
			c15.693-11.334,36.731-20.792,56.385-19.527c-5.769,14.788-11.808,38.804-21.154,51.092
			C4066.577,2368.023,4034.154,2382.011,4020.308,2389.054z"/>
		<path style="fill:#84B5A9;" d="M3483.581,2809.935c0.381,14.208-0.792,30.95,3.104,44.554c9.115,2.946,17.546,2.465,26.954,2.165
			l358.938-0.842c58.115-0.085,120.769-5.285,178.423,0.704c11.154,1.162,22.539,2.596,30.808,11.115
			c8.962,9.219,9.77,18.812,8.115,31.062c-7.231,54.154-30.769,108.381-43.615,161.658l197.116,46.596
			c21.538,4.865,51.538,15.758,73.192,14.281c0.461,41.731,16.961,90.142,26.423,131.158l48.116,203.558l-57.269,13.046l-288,66.888
			c-29.577,8.761-61.193,13.473-91.309,20.519l-94.346,22.792c-9.461,2.031-23.265,5.9-32.654,2.431
			c-10.15-3.754-19.485-8.346-26.938-16.4c-15.562-16.819-14.481-35.108-13.6-56.45c-13.154-1.927-23.358-4.219-35.065-10.638
			c-9.492-8.873-23.408-20.115-26.177-33.531c-4-19.392,5.046-33.073,15.046-48.669c-16.165-1.277-29.039-3.654-43.435-11.331
			l-12.839-10.142c-17.273,20.073-36.323,41.792-57.881,57.312c-49.069,35.323-112.777,51.419-172.515,40.727
			c-71.869-12.865-120.035-51.6-160.669-109.758l-4.2-27.469c-3.573-12.523-12.742-15.55-23.181-20.654l1.669-14.035
			c9.746-0.069,18.796-2.281,27.131-7.404c8.477-5.212,17.739-13.927,20.023-23.877c3.338-14.546,0.435-32.015-7.823-44.485
			c-9.45-14.269-32.5-18.573-47.873-22.235l-235.75-74.104c-21.9-6.477-50.177-19.685-72.842-19.608
			c10.35-39.465,43.077-241.111,59.935-258.004c3.935-3.946,14.35-12.589,19.573-14.169c10.185-3.081,25.45-1.569,36.104-1.596
			l75.485-0.054l340.362,0.873L3483.581,2809.935z"/>
		<path style="fill:#204F73;" d="M3259.25,3222.581c4.469-26.092,12.688-50.508,24.588-74.15
			c28.765-57.158,83.504-101.846,144.308-121.112c58.862-18.654,119.738-14.011,174.392,15.512
			c66.388,35.858,104.915,89.077,126.227,160.565c-24.042,5.323-62.377,8.565-76.812,30.669c-7.3,11.177-9.723,23.681-6.55,36.592
			c3.965,16.123,15.25,24.127,28.212,33.261l37.269,10.085c-14.2,9.446-29.573,20.096-33.473,37.931
			c-3.312,15.15,1.054,28.735,7.157,42.523c-17.273,20.073-36.323,41.792-57.881,57.312
			c-49.069,35.323-112.777,51.419-172.515,40.727c-71.869-12.865-120.035-51.6-160.669-109.758l-4.2-27.469
			c-3.573-12.523-12.742-15.55-23.181-20.654l1.669-14.035c9.746-0.069,18.796-2.281,27.131-7.404
			c8.477-5.212,17.739-13.927,20.023-23.877c3.338-14.546,0.435-32.015-7.823-44.485
			C3297.673,3230.546,3274.623,3226.242,3259.25,3222.581z"/>
		<path style="fill:#062C4F;" d="M3481.465,3183.239c16.739-0.989,31.588-0.296,46.885,7.342
			c19.284,9.627,32.588,25.327,39.304,45.723c6.281,19.073,5.862,43.643-3.246,61.727c-13.281,26.369-32.242,35.619-59.292,44.996
			c-14.308,0.469-28.489,1.354-41.831-4.654c-21.912-9.869-39.188-28.584-46.712-51.469c-5.827-17.719-3.477-41.573,4.892-58.154
			C3434.919,3202.1,3454.258,3192.596,3481.465,3183.239z"/>
		<path style="fill:#C05D1E;" d="M4046.308,3060.35l197.116,46.596c21.538,4.865,51.538,15.758,73.192,14.281
			c0.461,41.731,16.961,90.142,26.423,131.158l48.116,203.558l-57.269,13.046l-288,66.888
			c-29.577,8.761-61.193,13.473-91.309,20.519l-94.346,22.792c-9.461,2.031-23.265,5.9-32.654,2.431
			c-10.15-3.754-19.485-8.346-26.938-16.4c-15.562-16.819-14.481-35.108-13.6-56.45c-13.154-1.927-23.358-4.219-35.065-10.638
			c-9.492-8.873-23.408-20.115-26.177-33.531c-4-19.392,5.046-33.073,15.046-48.669c-16.165-1.277-29.039-3.654-43.435-11.331
			l-12.839-10.142c-6.104-13.789-10.469-27.373-7.157-42.523c3.9-17.834,19.273-28.485,33.473-37.931l-37.269-10.085
			c-12.962-9.135-24.246-17.138-28.212-33.261c-3.173-12.912-0.75-25.416,6.55-36.592c14.435-22.104,52.769-25.346,76.812-30.669
			l201.081-50.173c22.577-5.527,82-12.404,97.385-27.708l17.808-59.658L4046.308,3060.35z"/>
		<path style="fill:#91400E;" d="M4045.039,3065.858c10.269,15.973,13.231,35.127,17.385,53.385c-10.5,2.958-25,9.442-35.192,6.273
			L4045.039,3065.858z"/>
		<path style="fill:#202437;" d="M3751.973,3498.131l402.565-99.262c4.692,7.489,5.115,7.373,3.423,15.969l-242.385,60.05
			c-41.5,9.658-89.173,17.519-128.538,33.881C3773.885,3506.842,3763.681,3504.55,3751.973,3498.131z"/>
		<path style="fill:#202437;" d="M3673.615,3303.919l422.807-103.365c5.462,4.862,5.731,6.404,7.923,13.123
			c-6.846,7-18.5,7.854-27.769,10.011l-72.654,17.315l-195.927,48.727c-31.873,8.011-64.754,19.019-97.112,24.273L3673.615,3303.919
			z"/>
		<path style="fill:#202437;" d="M3697.408,3404.6l2.023-0.131c40.861-2.9,81.319-17.827,121.008-27.696l303.331-74.658
			c5.654,6.231,5.038,6.227,5,14.123c-17.423,10.95-50.808,14.469-71.385,19.396l-218.696,53.342
			c-30.104,7.481-70.419,12.946-97.846,26.954C3724.677,3414.654,3711.804,3412.277,3697.408,3404.6z"/>
	</g>
</g>
</svg>
