<svg version="1.1" xmlns="http://www.w3.org/2000/svg" viewBox="0 0 1401.5525156033245 817.3638040747664" width="2803.105031206649" height="1634.727608149533" filter="invert(93%) hue-rotate(180deg)">
  <!-- svg-source:excalidraw -->
  
  <defs>
    <style class="style-fonts">
      @font-face {
        font-family: "Virgil";
        src: url("https://excalidraw.com/Virgil.woff2");
      }
      @font-face {
        font-family: "Cascadia";
        src: url("https://excalidraw.com/Cascadia.woff2");
      }
      @font-face {
        font-family: "Assistant";
        src: url("https://excalidraw.com/Assistant-Regular.woff2");
      }
    </style>
    
  </defs>
  <g transform="translate(10 27.294191175062224) rotate(0 58.53315344704413 33.00248002234002)"><text x="0" y="46.256275999311825" font-family="Virgil, Segoe UI Emoji" font-size="52.80396803574408px" fill="#f08c00" text-anchor="start" style="white-space: pre;" direction="ltr" dominant-baseline="alphabetic">Work</text></g><g transform="translate(306.5274377045762 21.868619195336578) rotate(0 76.24317169189453 33.00248002234002)"><text x="0" y="46.256275999311825" font-family="Virgil, Segoe UI Emoji" font-size="52.80396803574408px" fill="#f08c00" text-anchor="start" style="white-space: pre;" direction="ltr" dominant-baseline="alphabetic">Stage</text></g><g transform="translate(598.1010922972273 17.960092454319238) rotate(0 126.00717163085938 33.00248002234002)"><text x="0" y="46.256275999311825" font-family="Virgil, Segoe UI Emoji" font-size="52.80396803574408px" fill="#f08c00" text-anchor="start" style="white-space: pre;" direction="ltr" dominant-baseline="alphabetic">local repo</text></g><g transform="translate(1001.4480371049049 13.526903955142188) rotate(0 166.21435546875 33.00248002234002)"><text x="0" y="46.256275999311825" font-family="Virgil, Segoe UI Emoji" font-size="52.80396803574408px" fill="#f08c00" text-anchor="start" style="white-space: pre;" direction="ltr" dominant-baseline="alphabetic">Remote Repo</text></g><g stroke-linecap="round"><g transform="translate(186.07079203473995 26.944416669624843) rotate(0 0 244.11210120627948)"><path d="M2.05 -2.04 C2.45 79.7, 0.13 407.65, 0.17 489.09 M-0.28 3.03 C-0.04 84.01, -2.32 403.59, -1.98 484.55" stroke="#f08c00" stroke-width="4" fill="none"></path></g></g><mask></mask><g stroke-linecap="round"><g transform="translate(526.0922827761942 25.167074124541614) rotate(0 0 244.11210120627948)"><path d="M-2.7 -0.95 C-2.87 80.48, -0.01 406.54, 0.61 488.51 M1.02 -3.94 C0.4 78.01, -1.09 410.51, -1.29 492.29" stroke="#f08c00" stroke-width="4" fill="none"></path></g></g><mask></mask><g stroke-linecap="round"><g transform="translate(919.9790473553535 18.21632261528248) rotate(0 0 244.11210120627948)"><path d="M-1.36 -1.11 C-1.33 80.14, -1.1 407.25, -0.79 488.53 M3.09 -4.18 C2.78 77.48, -2.77 410.17, -3.45 492.33" stroke="#f08c00" stroke-width="4" fill="none"></path></g></g><mask></mask><g stroke-linecap="round"><g transform="translate(1390.3078099547229 13.665186899155742) rotate(0 0 244.11210120627948)"><path d="M1.21 -0.78 C1.43 80.84, 0.58 406.56, 0.83 488.01 M-1.58 -3.67 C-1.61 78.56, -1.61 409.1, -0.96 491.53" stroke="#f08c00" stroke-width="4" fill="none"></path></g></g><mask></mask><g transform="translate(1059.8685138041492 291.50002428976586) rotate(0 103.78119792285361 29.624715757599915)"><text x="0" y="41.52200160585206" font-family="Virgil, Segoe UI Emoji" font-size="47.399545212159886px" fill="#f08c00" text-anchor="start" style="white-space: pre;" direction="ltr" dominant-baseline="alphabetic">git fetch</text></g><g stroke-linecap="round"><g transform="translate(1047.980247764614 324.5130435996907) rotate(0 -57.9588556949725 -1.2425129233934058)"><path d="M1.84 -0.16 C-17.36 -0.37, -95.44 -0.25, -115.02 -0.77 M-0.61 -2.71 C-20.11 -3.77, -97.32 -5.21, -116.77 -4.84" stroke="#f08c00" stroke-width="4" fill="none"></path></g><g transform="translate(1047.980247764614 324.5130435996907) rotate(0 -57.9588556949725 -1.2425129233934058)"><path d="M-93.37 -12.67 C-99.17 -10.39, -108.1 -7.71, -116.11 -4.69 M-92.28 -13.39 C-100.37 -10.83, -105.59 -9.3, -117.65 -4.63" stroke="#f08c00" stroke-width="4" fill="none"></path></g><g transform="translate(1047.980247764614 324.5130435996907) rotate(0 -57.9588556949725 -1.2425129233934058)"><path d="M-93.42 4.43 C-99.24 1.5, -108.15 -1.02, -116.11 -4.69 M-92.34 3.71 C-100.28 1.81, -105.48 -1.12, -117.65 -4.63" stroke="#f08c00" stroke-width="4" fill="none"></path></g></g><mask></mask><g stroke-linecap="round"><g transform="translate(1373.6975880917512 319.40877610751886) rotate(0 -51.89270831284193 0.585668939340394)"><path d="M-0.02 1.85 C-17.37 1.8, -89.18 2.8, -106.26 2.47 M-3.48 0.39 C-19.78 0.69, -84.51 -2.15, -101.2 -1.84" stroke="#f08c00" stroke-width="4" fill="none"></path></g><g transform="translate(1373.6975880917512 319.40877610751886) rotate(0 -51.89270831284193 0.585668939340394)"><path d="M-76.25 -11.78 C-81.79 -7.31, -88.9 -7.84, -102.26 0.13 M-78.36 -9.2 C-87.2 -7.44, -94.81 -4.57, -102.15 -2.43" stroke="#f08c00" stroke-width="4" fill="none"></path></g><g transform="translate(1373.6975880917512 319.40877610751886) rotate(0 -51.89270831284193 0.585668939340394)"><path d="M-76.53 5.32 C-82.17 6.01, -89.22 1.7, -102.26 0.13 M-78.63 7.9 C-87.32 3.27, -94.84 -0.24, -102.15 -2.43" stroke="#f08c00" stroke-width="4" fill="none"></path></g></g><mask></mask><g transform="translate(533.1894515202898 605.1565367149778) rotate(0 69.46203695516738 25.749597057418214)"><text x="0" y="36.09063523567785" font-family="Virgil, Segoe UI Emoji" font-size="41.19935529186969px" fill="#f08c00" text-anchor="start" style="white-space: pre;" direction="ltr" dominant-baseline="alphabetic">git pull</text></g><g stroke-linecap="round"><g transform="translate(1387.2411823140078 623.8264759115427) rotate(0 -343.358583552073 0.08744362635934522)"><path d="M1.74 -0.08 C-111.96 -0.47, -570.57 0.02, -684.87 0.04 M-0.76 -2.6 C-114.43 -1.29, -572.16 2.65, -686.11 3.59" stroke="#f08c00" stroke-width="4" fill="none"></path></g><g transform="translate(1387.2411823140078 623.8264759115427) rotate(0 -343.358583552073 0.08744362635934522)"><path d="M-662.75 -3.84 C-667.52 -1.34, -672.31 -3.08, -684.48 2.21 M-662.55 -4.82 C-668.34 -2.18, -675.77 0.34, -685.29 3.61" stroke="#f08c00" stroke-width="4" fill="none"></path></g><g transform="translate(1387.2411823140078 623.8264759115427) rotate(0 -343.358583552073 0.08744362635934522)"><path d="M-662.61 13.26 C-667.54 12.26, -672.37 7.01, -684.48 2.21 M-662.41 12.28 C-668.2 10.27, -675.67 8.13, -685.29 3.61" stroke="#f08c00" stroke-width="4" fill="none"></path></g></g><mask></mask><g stroke-linecap="round"><g transform="translate(521.1140967917977 633.8605954049126) rotate(0 -230.19636317881816 2.5193607019155024)"><path d="M0.62 1.92 C-75.68 2.23, -382.19 1.87, -459.22 2.72 M-2.48 0.5 C-78.93 1.01, -383.91 4.74, -460.82 5.1" stroke="#f08c00" stroke-width="4" fill="none"></path></g><g transform="translate(521.1140967917977 633.8605954049126) rotate(0 -230.19636317881816 2.5193607019155024)"><path d="M-436.03 -2.83 C-444.89 -2.25, -447.65 1.07, -458.94 4.66 M-436.43 -3.38 C-445.47 0.3, -456.1 2.95, -460.4 5.37" stroke="#f08c00" stroke-width="4" fill="none"></path></g><g transform="translate(521.1140967917977 633.8605954049126) rotate(0 -230.19636317881816 2.5193607019155024)"><path d="M-435.88 14.27 C-444.83 10.58, -447.63 9.62, -458.94 4.66 M-436.28 13.72 C-445.32 10.88, -456.02 7.01, -460.4 5.37" stroke="#f08c00" stroke-width="4" fill="none"></path></g></g><mask></mask><g transform="translate(150.53614256932087 755.86460995993) rotate(0 317.90423583984375 25.749597057418214)"><text x="0" y="36.09063523567785" font-family="Virgil, Segoe UI Emoji" font-size="41.19935529186969px" fill="#f08c00" text-anchor="start" style="white-space: pre;" direction="ltr" dominant-baseline="alphabetic">git pull = git fetch + git merge</text></g></svg>