<svg version="1.1" xmlns="http://www.w3.org/2000/svg" viewBox="0 0 695.0773911790457 301.09391159029474" width="1390.1547823580913" height="602.1878231805895" filter="invert(93%) hue-rotate(180deg)">
  <!-- svg-source:excalidraw -->
  
  <defs>
    <style class="style-fonts">
      @font-face {
        font-family: "Virgil";
        src: url("https://excalidraw.com/Virgil.woff2");
      }
      @font-face {
        font-family: "Cascadia";
        src: url("https://excalidraw.com/Cascadia.woff2");
      }
      @font-face {
        font-family: "Assistant";
        src: url("https://excalidraw.com/Assistant-Regular.woff2");
      }
    </style>
    
  </defs>
  <g stroke-linecap="round" transform="translate(10 22.1729662183825) rotate(0 11.09720625688442 11.09720625688442)"><path d="M16.3 0.18 C18.12 0.99, 19.01 4.6, 20.03 6.88 C21.05 9.16, 22.78 11.85, 22.43 13.87 C22.07 15.89, 20.02 17.47, 17.9 19.01 C15.78 20.56, 12.06 23.01, 9.7 23.14 C7.33 23.28, 5.4 21.66, 3.7 19.8 C2 17.94, -0.14 14.31, -0.49 11.99 C-0.84 9.67, 0.31 7.94, 1.59 5.86 C2.88 3.78, 4.79 0.16, 7.24 -0.48 C9.69 -1.12, 14.57 1.81, 16.27 2.05 C17.98 2.28, 17.69 0.95, 17.45 0.91 M7.25 0.67 C9.38 0, 13.84 0.68, 16.21 1.43 C18.58 2.18, 20.46 3.29, 21.48 5.18 C22.5 7.07, 22.93 10.14, 22.34 12.77 C21.74 15.41, 19.81 19.41, 17.9 20.99 C16 22.57, 13.18 22.57, 10.9 22.25 C8.63 21.93, 6.08 20.51, 4.28 19.07 C2.48 17.63, 0.57 15.93, 0.1 13.62 C-0.36 11.31, 0.46 7.18, 1.48 5.23 C2.5 3.28, 5.46 2.46, 6.21 1.92 C6.97 1.39, 5.9 2.12, 6.02 2.03" stroke="#f08c00" stroke-width="4" fill="none"></path></g><g stroke-linecap="round" transform="translate(131.01384459129258 18.89891416165119) rotate(0 11.09720625688442 11.09720625688442)"><path d="M6.8 0.35 C8.89 -0.69, 11.84 0.02, 14.07 0.77 C16.3 1.53, 18.9 2.93, 20.18 4.87 C21.45 6.82, 22.07 10.04, 21.72 12.43 C21.37 14.83, 19.96 17.47, 18.06 19.25 C16.16 21.02, 12.8 23.05, 10.32 23.07 C7.84 23.1, 4.9 21.19, 3.21 19.4 C1.52 17.61, 0.63 14.5, 0.19 12.32 C-0.25 10.13, -0.9 8.25, 0.57 6.27 C2.05 4.3, 7.44 1.62, 9.03 0.49 C10.61 -0.64, 10.22 -0.7, 10.1 -0.49 M5.19 0.03 C7.15 -0.94, 11.5 0.69, 14.15 1.53 C16.8 2.37, 19.95 3.09, 21.07 5.07 C22.2 7.05, 21.32 11.03, 20.9 13.42 C20.47 15.8, 20.05 17.7, 18.51 19.38 C16.98 21.05, 13.8 23.12, 11.66 23.47 C9.52 23.82, 7.54 22.86, 5.66 21.46 C3.79 20.06, 1.15 17.55, 0.39 15.05 C-0.36 12.55, 0.18 8.79, 1.14 6.48 C2.1 4.18, 5.38 1.95, 6.14 1.21 C6.91 0.47, 5.41 1.86, 5.73 2.03" stroke="#f08c00" stroke-width="4" fill="none"></path></g><g stroke-linecap="round"><g transform="translate(37.933154690226274 32.27381354272984) rotate(0 44.542972302251655 -1.1222477105620783)"><path d="M-1.74 0.47 C13.11 -0.17, 71.4 -2, 86.41 -2.34 M2.52 -1.75 C18.44 -2.04, 77.43 0.63, 91.35 1.23" stroke="#f08c00" stroke-width="4" fill="none"></path></g></g><mask></mask><g stroke-linecap="round"><g transform="translate(194.60773025471326 129.68795518695333) rotate(0 -23.300676065857033 -39.597727732098065)"><path d="M-2.7 2.61 C-10.41 -10.42, -39.75 -63.43, -47.12 -76.74 M1.04 1.55 C-7.01 -12.34, -41.31 -66.54, -49.64 -80.41" stroke="#2f9e44" stroke-width="4" fill="none"></path></g></g><mask></mask><g stroke-linecap="round" transform="translate(192.1715101528721 132.30312968692306) rotate(0 11.09720625688442 11.09720625688442)"><path d="M12.85 1.26 C14.86 1.82, 17.86 3.42, 19.31 5.25 C20.77 7.08, 21.45 9.96, 21.57 12.24 C21.7 14.53, 21.44 17.42, 20.08 18.95 C18.72 20.48, 16.04 21.1, 13.42 21.4 C10.81 21.7, 6.44 21.93, 4.4 20.76 C2.36 19.6, 1.86 16.9, 1.2 14.43 C0.55 11.96, -0.49 8.01, 0.48 5.94 C1.46 3.86, 4.84 2.73, 7.05 1.96 C9.26 1.18, 12.34 1.42, 13.74 1.27 C15.14 1.13, 15.39 0.93, 15.46 1.1 M16.94 0.37 C18.87 0.8, 20.66 2.55, 21.57 5.02 C22.48 7.49, 22.86 12.41, 22.41 15.18 C21.96 17.96, 20.67 20.71, 18.86 21.68 C17.06 22.65, 14.4 21.67, 11.55 21.01 C8.71 20.35, 3.81 19.41, 1.8 17.73 C-0.21 16.04, -0.38 13.28, -0.49 10.9 C-0.61 8.51, -0.2 4.98, 1.12 3.42 C2.43 1.86, 5.02 1.73, 7.38 1.54 C9.73 1.36, 14.1 2.5, 15.26 2.32 C16.43 2.13, 14.29 0.24, 14.38 0.44" stroke="#2f9e44" stroke-width="4" fill="none"></path></g><g stroke-linecap="round" transform="translate(365.1065330748911 16.397619733215834) rotate(0 11.09720625688442 11.09720625688442)"><path d="M14.96 1.16 C17.12 1.58, 18.93 3.04, 19.95 4.86 C20.97 6.68, 21.26 9.76, 21.09 12.1 C20.93 14.45, 20.51 17.27, 18.96 18.93 C17.42 20.58, 14.46 22.04, 11.84 22.05 C9.21 22.07, 5.08 20.45, 3.19 19.02 C1.29 17.59, 0.69 15.76, 0.46 13.46 C0.22 11.17, 0.61 7.54, 1.78 5.25 C2.95 2.96, 5.18 0.42, 7.46 -0.25 C9.73 -0.93, 13.97 1.03, 15.41 1.2 C16.86 1.37, 16.06 0.47, 16.12 0.76 M13.08 -0.19 C15.04 0.53, 18.2 4.06, 19.69 6.23 C21.19 8.4, 22.38 10.71, 22.06 12.85 C21.73 14.99, 19.49 17.7, 17.75 19.08 C16.01 20.46, 13.9 20.99, 11.61 21.14 C9.32 21.29, 6.04 21.26, 4 19.97 C1.96 18.69, -0.4 15.89, -0.63 13.43 C-0.86 10.97, 1.3 7.29, 2.62 5.22 C3.94 3.14, 5.26 1.67, 7.27 1 C9.28 0.34, 13.38 1.04, 14.68 1.23 C15.98 1.41, 15.37 2.2, 15.09 2.12" stroke="#f08c00" stroke-width="4" fill="none"></path></g><g stroke-linecap="round"><g transform="translate(154.5585493818744 27.096337433140434) rotate(0 101.65992889692166 1.0638429484351946)"><path d="M1.08 -1.34 C34.6 -0.9, 168 2.39, 201.63 3.31 M-1.78 4.1 C32.62 3.63, 173.36 -0.34, 207.11 -1.06" stroke="#f08c00" stroke-width="4" fill="none"></path></g></g><mask></mask><g stroke-linecap="round" transform="translate(602.9816667917335 10) rotate(0 11.09720625688442 11.09720625688442)"><path d="M12.57 1.06 C14.75 1.58, 18.83 3.02, 20.45 4.61 C22.08 6.21, 22.67 8.15, 22.34 10.65 C22.01 13.15, 20.08 17.58, 18.47 19.59 C16.87 21.6, 15.03 22.65, 12.71 22.72 C10.38 22.79, 6.6 21.26, 4.53 20.02 C2.46 18.77, 1 17.59, 0.28 15.24 C-0.44 12.88, -0.77 8.05, 0.21 5.86 C1.19 3.67, 3.27 2.93, 6.16 2.08 C9.05 1.22, 15.49 0.48, 17.54 0.71 C19.59 0.94, 18.8 3.06, 18.45 3.46 M10.17 0.96 C12.5 0.3, 15.23 -0.03, 17.16 0.94 C19.09 1.9, 21.06 4.23, 21.75 6.74 C22.45 9.25, 22.17 13.68, 21.33 15.99 C20.5 18.31, 18.67 19.7, 16.74 20.63 C14.82 21.56, 12.13 21.84, 9.79 21.58 C7.46 21.32, 4.35 20.84, 2.71 19.09 C1.08 17.34, 0.21 13.37, -0.03 11.09 C-0.27 8.82, 0.02 7.06, 1.28 5.44 C2.53 3.83, 6.35 2.28, 7.49 1.39 C8.63 0.5, 7.99 0.22, 8.11 0.11" stroke="#f08c00" stroke-width="4" fill="none"></path></g><g stroke-linecap="round"><g transform="translate(393.088493510063 27.98297513297439) rotate(0 101.63552602444906 -1.636741605190764)"><path d="M1.24 2.31 C34.41 0.9, 167.21 -5.31, 201.25 -5.99 M-1.53 1.09 C32.32 1.14, 172.16 -2.57, 206.56 -3.84" stroke="#f08c00" stroke-width="4" fill="none"></path></g></g><mask></mask><g stroke-linecap="round" transform="translate(286.9726025632517 129.49273220717077) rotate(0 11.09720625688442 11.09720625688442)"><path d="M7.36 0.4 C9.58 -0.29, 12.86 0.43, 15.17 1.21 C17.49 1.99, 19.96 2.95, 21.26 5.08 C22.56 7.21, 23.52 11.6, 22.98 13.99 C22.45 16.38, 19.97 18.04, 18.04 19.44 C16.12 20.83, 13.9 22.45, 11.44 22.36 C8.99 22.27, 5.22 20.42, 3.32 18.9 C1.43 17.38, 0.38 15.5, 0.06 13.23 C-0.25 10.96, -0.28 7.63, 1.42 5.29 C3.13 2.96, 8.78 0.13, 10.31 -0.81 C11.84 -1.75, 10.73 -0.61, 10.61 -0.35 M10.04 -0.38 C12.71 -0.59, 17.24 1.16, 19.45 2.74 C21.67 4.33, 23.36 6.53, 23.31 9.12 C23.26 11.72, 20.7 16.45, 19.17 18.31 C17.64 20.18, 16.18 19.67, 14.13 20.31 C12.09 20.95, 8.93 22.71, 6.92 22.18 C4.92 21.65, 3.28 19.25, 2.09 17.15 C0.9 15.04, -0.54 11.95, -0.22 9.57 C0.11 7.19, 2.17 4.64, 4.03 2.85 C5.88 1.07, 9.6 -0.82, 10.9 -1.14 C12.2 -1.45, 11.77 0.59, 11.84 0.94" stroke="#2f9e44" stroke-width="4" fill="none"></path></g><g stroke-linecap="round" transform="translate(402.3046450138563 128.10176847623734) rotate(0 11.09720625688442 11.09720625688442)"><path d="M8.71 -0.38 C10.84 -0.9, 12.91 0.42, 15.08 1.56 C17.24 2.69, 20.71 4.31, 21.69 6.45 C22.66 8.59, 21.51 12.05, 20.94 14.41 C20.38 16.77, 20.27 19.47, 18.3 20.6 C16.33 21.73, 11.78 21.45, 9.12 21.2 C6.46 20.95, 3.93 20.53, 2.34 19.08 C0.75 17.63, -0.42 14.89, -0.42 12.5 C-0.42 10.11, 0.7 6.73, 2.35 4.75 C4 2.77, 7.82 1.46, 9.48 0.61 C11.14 -0.24, 12.37 -0.54, 12.32 -0.35 M9.77 0.92 C11.93 0.14, 15.15 -0.01, 17.23 0.91 C19.31 1.83, 21.42 4.3, 22.25 6.45 C23.08 8.61, 23.09 11.2, 22.22 13.84 C21.35 16.49, 19.16 21, 17.03 22.34 C14.9 23.68, 12.03 22.38, 9.43 21.87 C6.84 21.37, 3.16 21.33, 1.45 19.3 C-0.27 17.26, -1.07 12.32, -0.85 9.66 C-0.64 7.01, 1.01 4.71, 2.73 3.35 C4.46 1.98, 8.2 2.03, 9.5 1.5 C10.81 0.97, 10.68 0.42, 10.55 0.17" stroke="#2f9e44" stroke-width="4" fill="none"></path></g><g stroke-linecap="round"><g transform="translate(285.6223102864378 144.10191852739626) rotate(0 -35.96780045180776 0.8825705544222728)"><path d="M-2.49 -2.43 C-14.01 -2.42, -59.9 -0.04, -71.79 0.83 M1.36 2.42 C-10.28 2.76, -62.39 4.72, -73.94 3.96" stroke="#2f9e44" stroke-width="4" fill="none"></path></g></g><mask></mask><g stroke-linecap="round"><g transform="translate(385.9709890389063 142.40185174514409) rotate(0 -36.708020916807754 0.3802780960295422)"><path d="M-0.66 -1.81 C-12.48 -2.16, -60.66 -1.95, -72.46 -1.5 M4.18 3.38 C-7.79 3.25, -61.45 0.79, -74.18 0.9" stroke="#2f9e44" stroke-width="4" fill="none"></path></g></g><mask></mask><g stroke-linecap="round" transform="translate(392.71024898673795 118.88968411785572) rotate(0 22.554354882738835 20.004254709358975)"><path d="M15.57 1.23 C19.93 -0.02, 27.85 -0.05, 32.26 1.68 C36.67 3.41, 39.82 7.68, 42.01 11.6 C44.19 15.53, 46.55 21.29, 45.36 25.23 C44.18 29.18, 39.09 32.78, 34.88 35.27 C30.67 37.76, 24.85 40.23, 20.1 40.17 C15.35 40.11, 9.68 37.92, 6.4 34.92 C3.11 31.91, 0.87 26.43, 0.39 22.16 C-0.09 17.89, 0.48 13.03, 3.54 9.32 C6.59 5.61, 16.24 1.24, 18.71 -0.11 C21.19 -1.46, 18.52 0.74, 18.39 1.22 M31.57 0.79 C35.98 1.79, 40.93 5.95, 43.23 9.66 C45.53 13.37, 46.44 18.42, 45.39 23.04 C44.33 27.67, 40.78 34.59, 36.9 37.4 C33.01 40.21, 27.17 40.14, 22.07 39.91 C16.97 39.69, 10.1 39.12, 6.3 36.05 C2.51 32.97, -0.22 25.99, -0.69 21.45 C-1.16 16.91, 0.73 12.02, 3.49 8.82 C6.25 5.63, 11.06 3.51, 15.86 2.27 C20.66 1.04, 29.9 1.69, 32.28 1.43 C34.66 1.17, 30.44 0.58, 30.14 0.71" stroke="#f08c00" stroke-width="4" fill="none"></path></g><g stroke-linecap="round" transform="translate(511.56443936421147 127.95128409598874) rotate(0 11.09720625688442 11.09720625688442)"><path d="M9.06 1.02 C11.16 0.26, 13.64 0.44, 15.58 1.38 C17.52 2.32, 19.57 4.37, 20.7 6.66 C21.84 8.95, 22.95 12.81, 22.39 15.1 C21.82 17.39, 19.43 19.31, 17.3 20.41 C15.17 21.52, 12.05 21.92, 9.6 21.74 C7.16 21.56, 4.23 21.08, 2.64 19.31 C1.04 17.54, -0.01 13.58, 0.02 11.12 C0.04 8.66, 1.33 6.25, 2.81 4.53 C4.29 2.81, 7.58 1.55, 8.88 0.79 C10.19 0.03, 10.55 -0.12, 10.63 -0.04 M12.1 0.67 C14.22 0.93, 16.15 3.06, 17.91 4.52 C19.67 5.97, 22.3 7.23, 22.64 9.4 C22.99 11.57, 21.63 15.42, 19.98 17.55 C18.34 19.68, 14.93 21.43, 12.76 22.2 C10.59 22.97, 8.79 23.39, 6.99 22.16 C5.19 20.93, 2.95 17.02, 1.96 14.83 C0.97 12.65, 0.53 11.37, 1.05 9.05 C1.56 6.73, 3.14 2.39, 5.04 0.91 C6.95 -0.56, 11.45 0.37, 12.46 0.21 C13.47 0.06, 10.95 -0.21, 11.12 -0.01" stroke="#2f9e44" stroke-width="4" fill="none"></path></g><g stroke-linecap="round"><g transform="translate(511.82880381599625 140.77906072572114) rotate(0 -36.70802091680753 0.3802780960295422)"><path d="M-0.2 1.96 C-13.11 2.1, -63.7 0.24, -75.78 -0.1 M-3.75 0.55 C-15.95 1.19, -58.93 2.73, -70.67 3.06" stroke="#2f9e44" stroke-width="4" fill="none"></path></g></g><mask></mask><g stroke-linecap="round" transform="translate(647.541311926579 126.02752431607223) rotate(0 11.09720625688442 11.09720625688442)"><path d="M11.64 1.05 C13.91 1.44, 17.74 2.62, 19.4 4.12 C21.06 5.63, 21.55 7.66, 21.61 10.07 C21.67 12.48, 21.2 16.78, 19.76 18.59 C18.32 20.41, 15.22 20.41, 12.97 20.95 C10.72 21.49, 8.11 22.89, 6.24 21.84 C4.36 20.79, 2.79 17.02, 1.7 14.63 C0.62 12.24, -0.73 9.51, -0.29 7.47 C0.15 5.44, 1.83 3.54, 4.34 2.41 C6.86 1.28, 12.59 0.58, 14.79 0.7 C16.99 0.83, 17.48 2.91, 17.56 3.18 M9.27 1.46 C11.41 1.06, 14.72 0.79, 16.84 1.74 C18.97 2.69, 21.27 4.81, 22.02 7.17 C22.76 9.54, 22.29 13.67, 21.33 15.91 C20.38 18.15, 18.56 19.41, 16.28 20.63 C13.99 21.85, 10.2 23.48, 7.64 23.23 C5.09 22.98, 2.35 21.24, 0.94 19.1 C-0.48 16.96, -1 13.05, -0.84 10.39 C-0.68 7.73, 0.38 4.75, 1.89 3.13 C3.4 1.52, 6.8 1.41, 8.24 0.73 C9.68 0.04, 10.35 -1.17, 10.52 -0.95" stroke="#2f9e44" stroke-width="4" fill="none"></path></g><g stroke-linecap="round" transform="translate(637.9469158994607 116.81543995769061) rotate(0 22.554354882738835 20.004254709358975)"><path d="M23.73 -0.05 C28.37 -0.18, 34.2 1.75, 37.79 4.64 C41.38 7.53, 44.75 13.08, 45.27 17.3 C45.79 21.52, 43.46 26.47, 40.92 29.95 C38.39 33.44, 34.46 36.78, 30.08 38.21 C25.69 39.63, 19.12 39.82, 14.61 38.5 C10.11 37.18, 5.51 33.98, 3.04 30.27 C0.57 26.56, -1.26 20.5, -0.19 16.24 C0.87 11.97, 5.08 7.21, 9.44 4.69 C13.8 2.18, 22.7 1.75, 25.96 1.16 C29.23 0.56, 29.06 1.05, 29.05 1.12 M27.19 0.25 C31.55 0.88, 37.38 5.33, 40.51 9.07 C43.64 12.82, 46.02 18.36, 45.99 22.71 C45.95 27.06, 43.71 32.35, 40.29 35.2 C36.87 38.04, 30.34 39.7, 25.48 39.79 C20.61 39.87, 15.4 38.25, 11.09 35.71 C6.78 33.17, 1.19 28.73, -0.37 24.54 C-1.92 20.35, -0.59 14.25, 1.75 10.55 C4.08 6.84, 9.47 3.77, 13.65 2.29 C17.84 0.82, 24.64 1.79, 26.85 1.69 C29.06 1.59, 26.99 1.79, 26.94 1.68" stroke="#f08c00" stroke-width="4" fill="none"></path></g><g stroke-linecap="round"><g transform="translate(631.5289604391842 136.23605930041776) rotate(0 -47.50019126778557 1.3828294401091625)"><path d="M-2.02 -2.72 C-17.69 -2.4, -77.41 3.26, -92.8 4.24 M2.08 1.98 C-13.88 1.27, -77.53 -0.73, -93.84 0.04" stroke="#2f9e44" stroke-width="4" fill="none"></path></g></g><mask></mask><g stroke-linecap="round"><g transform="translate(379.2195276548391 37.772594139874855) rotate(0 20.449202881036854 39.949820233417995)"><path d="M-2.72 0.67 C4.05 14.33, 34.79 67.49, 41.97 80.7 M1 -1.43 C7.37 11.46, 34.11 62.05, 40.32 76.13" stroke="#f08c00" stroke-width="4" fill="none"></path></g></g><mask></mask><g stroke-linecap="round"><g transform="translate(623.1465737448693 35.43805267333482) rotate(0 20.449202881036854 39.949820233417995)"><path d="M-1.97 -2.54 C4.96 10.62, 36.43 65.2, 43.42 78.57 M2.15 2.25 C8.78 15.81, 36.63 68.59, 42.55 81.48" stroke="#f08c00" stroke-width="4" fill="none"></path></g></g><mask></mask><g transform="translate(488.3804325022361 255.66575075369838) rotate(0 98.34847933840479 17.71408041829818)"><text x="0" y="24.828055114286744" font-family="Virgil, Segoe UI Emoji" font-size="28.342528669277108px" fill="#f08c00" text-anchor="start" style="white-space: pre;" direction="ltr" dominant-baseline="alphabetic">Merge commits</text></g><g stroke-linecap="round"><g transform="translate(528.1502583547099 245.19285131756988) rotate(0 -44.46610079036782 -40.122389490256865)"><path d="M-0.28 1.78 C-15.26 -10.85, -76.35 -64.92, -90.9 -78.13 M-3.87 0.28 C-17.87 -12.91, -71.43 -68.36, -85.57 -82" stroke="#f08c00" stroke-width="4" fill="none"></path></g><g transform="translate(528.1502583547099 245.19285131756988) rotate(0 -44.46610079036782 -40.122389490256865)"><path d="M-61.65 -72.81 C-67.3 -73.28, -72.81 -76.64, -87.07 -82.73 M-62.41 -72.1 C-72.03 -74.5, -80.53 -79.98, -85.66 -82.23" stroke="#f08c00" stroke-width="4" fill="none"></path></g><g transform="translate(528.1502583547099 245.19285131756988) rotate(0 -44.46610079036782 -40.122389490256865)"><path d="M-73.76 -60.74 C-76.12 -64.37, -78.44 -70.92, -87.07 -82.73 M-74.52 -60.03 C-79.79 -66.87, -83.86 -76.77, -85.66 -82.23" stroke="#f08c00" stroke-width="4" fill="none"></path></g></g><mask></mask><g stroke-linecap="round"><g transform="translate(617.8511504183298 248.23507608581167) rotate(0 18.371295826405458 -41.50928607577862)"><path d="M-0.36 -0.34 C6.07 -14.34, 33.08 -68.66, 39.48 -82.32 M-4.01 -3 C2.23 -18.04, 31.91 -74.32, 38.73 -86.95" stroke="#f08c00" stroke-width="4" fill="none"></path></g><g transform="translate(617.8511504183298 248.23507608581167) rotate(0 18.371295826405458 -41.50928607577862)"><path d="M35.03 -60.23 C36.77 -69.46, 37.95 -78.95, 38.16 -87.18 M35.73 -62.43 C35.99 -68.88, 37.54 -77.4, 38.69 -87.05" stroke="#f08c00" stroke-width="4" fill="none"></path></g><g transform="translate(617.8511504183298 248.23507608581167) rotate(0 18.371295826405458 -41.50928607577862)"><path d="M19.93 -68.25 C26.71 -74.8, 32.89 -81.64, 38.16 -87.18 M20.62 -70.44 C25.3 -74.56, 31.3 -80.71, 38.69 -87.05" stroke="#f08c00" stroke-width="4" fill="none"></path></g></g><mask></mask></svg>