<svg version="1.1" xmlns="http://www.w3.org/2000/svg" viewBox="0 0 673.0513915615202 257.3497291105723" width="1346.1027831230404" height="514.6994582211446" filter="invert(93%) hue-rotate(180deg)">
  <!-- svg-source:excalidraw -->
  
  <defs>
    <style class="style-fonts">
      @font-face {
        font-family: "Virgil";
        src: url("https://excalidraw.com/Virgil.woff2");
      }
      @font-face {
        font-family: "Cascadia";
        src: url("https://excalidraw.com/Cascadia.woff2");
      }
      @font-face {
        font-family: "Assistant";
        src: url("https://excalidraw.com/Assistant-Regular.woff2");
      }
    </style>
    
  </defs>
  <g stroke-linecap="round" transform="translate(10 103.14373065495056) rotate(0 11.09720625688442 11.09720625688442)"><path d="M16.3 0.18 C18.12 0.99, 19.01 4.6, 20.03 6.88 C21.05 9.16, 22.78 11.85, 22.43 13.87 C22.07 15.89, 20.02 17.47, 17.9 19.01 C15.78 20.56, 12.06 23.01, 9.7 23.14 C7.33 23.28, 5.4 21.66, 3.7 19.8 C2 17.94, -0.14 14.31, -0.49 11.99 C-0.84 9.67, 0.31 7.94, 1.59 5.86 C2.88 3.78, 4.79 0.16, 7.24 -0.48 C9.69 -1.12, 14.57 1.81, 16.27 2.05 C17.98 2.28, 17.69 0.95, 17.45 0.91 M7.25 0.67 C9.38 0, 13.84 0.68, 16.21 1.43 C18.58 2.18, 20.46 3.29, 21.48 5.18 C22.5 7.07, 22.93 10.14, 22.34 12.77 C21.74 15.41, 19.81 19.41, 17.9 20.99 C16 22.57, 13.18 22.57, 10.9 22.25 C8.63 21.93, 6.08 20.51, 4.28 19.07 C2.48 17.63, 0.57 15.93, 0.1 13.62 C-0.36 11.31, 0.46 7.18, 1.48 5.23 C2.5 3.28, 5.46 2.46, 6.21 1.92 C6.97 1.39, 5.9 2.12, 6.02 2.03" stroke="#f08c00" stroke-width="4" fill="none"></path></g><g stroke-linecap="round" transform="translate(131.01384459129258 99.86967859821925) rotate(0 11.09720625688442 11.09720625688442)"><path d="M6.8 0.35 C8.89 -0.69, 11.84 0.02, 14.07 0.77 C16.3 1.53, 18.9 2.93, 20.18 4.87 C21.45 6.82, 22.07 10.04, 21.72 12.43 C21.37 14.83, 19.96 17.47, 18.06 19.25 C16.16 21.02, 12.8 23.05, 10.32 23.07 C7.84 23.1, 4.9 21.19, 3.21 19.4 C1.52 17.61, 0.63 14.5, 0.19 12.32 C-0.25 10.13, -0.9 8.25, 0.57 6.27 C2.05 4.3, 7.44 1.62, 9.03 0.49 C10.61 -0.64, 10.22 -0.7, 10.1 -0.49 M5.19 0.03 C7.15 -0.94, 11.5 0.69, 14.15 1.53 C16.8 2.37, 19.95 3.09, 21.07 5.07 C22.2 7.05, 21.32 11.03, 20.9 13.42 C20.47 15.8, 20.05 17.7, 18.51 19.38 C16.98 21.05, 13.8 23.12, 11.66 23.47 C9.52 23.82, 7.54 22.86, 5.66 21.46 C3.79 20.06, 1.15 17.55, 0.39 15.05 C-0.36 12.55, 0.18 8.79, 1.14 6.48 C2.1 4.18, 5.38 1.95, 6.14 1.21 C6.91 0.47, 5.41 1.86, 5.73 2.03" stroke="#f08c00" stroke-width="4" fill="none"></path></g><g stroke-linecap="round"><g transform="translate(37.933154690226274 113.2445779792979) rotate(0 44.542972302251655 -1.1222477105620783)"><path d="M-1.74 0.47 C13.11 -0.17, 71.4 -2, 86.41 -2.34 M2.52 -1.75 C18.44 -2.04, 77.43 0.63, 91.35 1.23" stroke="#f08c00" stroke-width="4" fill="none"></path></g></g><mask></mask><g stroke-linecap="round" transform="translate(365.1065330748911 97.3683841697839) rotate(0 11.09720625688442 11.09720625688442)"><path d="M14.96 1.16 C17.12 1.58, 18.93 3.04, 19.95 4.86 C20.97 6.68, 21.26 9.76, 21.09 12.1 C20.93 14.45, 20.51 17.27, 18.96 18.93 C17.42 20.58, 14.46 22.04, 11.84 22.05 C9.21 22.07, 5.08 20.45, 3.19 19.02 C1.29 17.59, 0.69 15.76, 0.46 13.46 C0.22 11.17, 0.61 7.54, 1.78 5.25 C2.95 2.96, 5.18 0.42, 7.46 -0.25 C9.73 -0.93, 13.97 1.03, 15.41 1.2 C16.86 1.37, 16.06 0.47, 16.12 0.76 M13.08 -0.19 C15.04 0.53, 18.2 4.06, 19.69 6.23 C21.19 8.4, 22.38 10.71, 22.06 12.85 C21.73 14.99, 19.49 17.7, 17.75 19.08 C16.01 20.46, 13.9 20.99, 11.61 21.14 C9.32 21.29, 6.04 21.26, 4 19.97 C1.96 18.69, -0.4 15.89, -0.63 13.43 C-0.86 10.97, 1.3 7.29, 2.62 5.22 C3.94 3.14, 5.26 1.67, 7.27 1 C9.28 0.34, 13.38 1.04, 14.68 1.23 C15.98 1.41, 15.37 2.2, 15.09 2.12" stroke="#f08c00" stroke-width="4" fill="none"></path></g><g stroke-linecap="round"><g transform="translate(154.5585493818744 108.0671018697085) rotate(0 101.65992889692166 1.0638429484351946)"><path d="M1.08 -1.34 C34.6 -0.9, 168 2.39, 201.63 3.31 M-1.78 4.1 C32.62 3.63, 173.36 -0.34, 207.11 -1.06" stroke="#f08c00" stroke-width="4" fill="none"></path></g></g><mask></mask><g stroke-linecap="round" transform="translate(495.64969936670786 89.19748903689651) rotate(0 11.09720625688442 11.09720625688442)"><path d="M12.85 1.26 C14.86 1.82, 17.86 3.42, 19.31 5.25 C20.77 7.08, 21.45 9.96, 21.57 12.24 C21.7 14.53, 21.44 17.42, 20.08 18.95 C18.72 20.48, 16.04 21.1, 13.42 21.4 C10.81 21.7, 6.44 21.93, 4.4 20.76 C2.36 19.6, 1.86 16.9, 1.2 14.43 C0.55 11.96, -0.49 8.01, 0.48 5.94 C1.46 3.86, 4.84 2.73, 7.05 1.96 C9.26 1.18, 12.34 1.42, 13.74 1.27 C15.14 1.13, 15.39 0.93, 15.46 1.1 M16.94 0.37 C18.87 0.8, 20.66 2.55, 21.57 5.02 C22.48 7.49, 22.86 12.41, 22.41 15.18 C21.96 17.96, 20.67 20.71, 18.86 21.68 C17.06 22.65, 14.4 21.67, 11.55 21.01 C8.71 20.35, 3.81 19.41, 1.8 17.73 C-0.21 16.04, -0.38 13.28, -0.49 10.9 C-0.61 8.51, -0.2 4.98, 1.12 3.42 C2.43 1.86, 5.02 1.73, 7.38 1.54 C9.73 1.36, 14.1 2.5, 15.26 2.32 C16.43 2.13, 14.29 0.24, 14.38 0.44" stroke="#2f9e44" stroke-width="4" fill="none"></path></g><g stroke-linecap="round" transform="translate(590.4507917770875 86.38709155714423) rotate(0 11.09720625688442 11.09720625688442)"><path d="M7.36 0.4 C9.58 -0.29, 12.86 0.43, 15.17 1.21 C17.49 1.99, 19.96 2.95, 21.26 5.08 C22.56 7.21, 23.52 11.6, 22.98 13.99 C22.45 16.38, 19.97 18.04, 18.04 19.44 C16.12 20.83, 13.9 22.45, 11.44 22.36 C8.99 22.27, 5.22 20.42, 3.32 18.9 C1.43 17.38, 0.38 15.5, 0.06 13.23 C-0.25 10.96, -0.28 7.63, 1.42 5.29 C3.13 2.96, 8.78 0.13, 10.31 -0.81 C11.84 -1.75, 10.73 -0.61, 10.61 -0.35 M10.04 -0.38 C12.71 -0.59, 17.24 1.16, 19.45 2.74 C21.67 4.33, 23.36 6.53, 23.31 9.12 C23.26 11.72, 20.7 16.45, 19.17 18.31 C17.64 20.18, 16.18 19.67, 14.13 20.31 C12.09 20.95, 8.93 22.71, 6.92 22.18 C4.92 21.65, 3.28 19.25, 2.09 17.15 C0.9 15.04, -0.54 11.95, -0.22 9.57 C0.11 7.19, 2.17 4.64, 4.03 2.85 C5.88 1.07, 9.6 -0.82, 10.9 -1.14 C12.2 -1.45, 11.77 0.59, 11.84 0.94" stroke="#2f9e44" stroke-width="4" fill="none"></path></g><g stroke-linecap="round"><g transform="translate(589.0557609007406 100.99627787736972) rotate(0 -35.967800451807534 0.8825705544222728)"><path d="M0.22 -0.54 C-11.73 0.27, -57.14 3.34, -69.35 3.67 M-3.1 -3.3 C-15.41 -3.16, -58.12 -1.58, -70.18 -0.31" stroke="#2f9e44" stroke-width="4" fill="none"></path></g></g><mask></mask><g stroke-linecap="round"><g transform="translate(494.80780026640514 107.34102472023005) rotate(0 -51.19315930196217 -0.4575538588615018)"><path d="M-2.49 -2.43 C-19.08 -2.87, -85.28 -2.27, -102.24 -1.85 M1.36 2.42 C-15.36 2.31, -87.76 2.49, -104.4 1.28" stroke="#2f9e44" stroke-width="4" fill="none"></path></g></g><mask></mask><g transform="translate(309.7259174333649 205.17010688990922) rotate(0 57.11115442354139 21.08981111033154)"><text x="0" y="29.559479252240685" font-family="Virgil, Segoe UI Emoji" font-size="33.74369777653046px" fill="#f08c00" text-anchor="start" style="white-space: pre;" direction="ltr" dominant-baseline="alphabetic">master</text></g><g transform="translate(567.0948791103483 204.54783364185823) rotate(0 47.97825622558594 21.08981111033154)"><text x="0" y="29.559479252240685" font-family="Virgil, Segoe UI Emoji" font-size="33.74369777653046px" fill="#2f9e44" text-anchor="start" style="white-space: pre;" direction="ltr" dominant-baseline="alphabetic">bugfix</text></g><g stroke-linecap="round"><g transform="translate(354.68650652911947 207.305358231255) rotate(0 8.331547376664048 -41.44014460377366)"><path d="M-0.68 1.31 C2.94 -13.01, 16.86 -70.31, 19.46 -84.39 M4.14 -0.44 C7.84 -14.56, 15.96 -68.28, 18.73 -81.58" stroke="#f08c00" stroke-width="4" fill="none"></path></g><g transform="translate(354.68650652911947 207.305358231255) rotate(0 8.331547376664048 -41.44014460377366)"><path d="M23.99 -54.96 C20.89 -63.61, 20.82 -68.69, 17.86 -80.4 M23.29 -57.53 C21.84 -64.95, 19.08 -72.96, 19.27 -80.8" stroke="#f08c00" stroke-width="4" fill="none"></path></g><g transform="translate(354.68650652911947 207.305358231255) rotate(0 8.331547376664048 -41.44014460377366)"><path d="M7.15 -57.95 C7.76 -65.9, 11.38 -70.33, 17.86 -80.4 M6.45 -60.52 C10.65 -67.09, 13.51 -74.11, 19.27 -80.8" stroke="#f08c00" stroke-width="4" fill="none"></path></g></g><mask></mask><g stroke-linecap="round"><g transform="translate(607.801234105058 191.99255575473944) rotate(0 -1.4540044848217804 -37.464509963456294)"><path d="M2.58 -0.07 C2.65 -12.66, -1.05 -64.34, -1.88 -77.05 M0.54 -2.58 C0.54 -14.73, -2.81 -62.68, -3.56 -74.58" stroke="#2f9e44" stroke-width="4" fill="none"></path></g><g transform="translate(607.801234105058 191.99255575473944) rotate(0 -1.4540044848217804 -37.464509963456294)"><path d="M6.46 -50.96 C2.93 -56.22, 1.26 -60.53, -3.34 -75.89 M5.7 -51.14 C3.06 -58.87, -0.8 -66.82, -2.58 -75.38" stroke="#2f9e44" stroke-width="4" fill="none"></path></g><g transform="translate(607.801234105058 191.99255575473944) rotate(0 -1.4540044848217804 -37.464509963456294)"><path d="M-10.6 -49.84 C-10.41 -55.5, -8.37 -60.05, -3.34 -75.89 M-11.36 -50.02 C-8.52 -58.01, -6.9 -66.32, -2.58 -75.38" stroke="#2f9e44" stroke-width="4" fill="none"></path></g></g><mask></mask><g transform="translate(255.5132328007444 10) rotate(0 76.09758191082074 27.25560355505786)"><text x="0" y="38.20145394276912" font-family="Virgil, Segoe UI Emoji" font-size="43.608965688092596px" fill="#f08c00" text-anchor="start" style="white-space: pre;" direction="ltr" dominant-baseline="alphabetic">Rebase</text></g></svg>