<svg version="1.1" xmlns="http://www.w3.org/2000/svg" viewBox="0 0 1156.4661739183452 351.90753564433544" width="2312.9323478366905" height="703.8150712886709" filter="invert(93%) hue-rotate(180deg)">
  <!-- svg-source:excalidraw -->
  
  <defs>
    <style class="style-fonts">
      @font-face {
        font-family: "Virgil";
        src: url("https://excalidraw.com/Virgil.woff2");
      }
      @font-face {
        font-family: "Cascadia";
        src: url("https://excalidraw.com/Cascadia.woff2");
      }
      @font-face {
        font-family: "Assistant";
        src: url("https://excalidraw.com/Assistant-Regular.woff2");
      }
    </style>
    
  </defs>
  <g transform="translate(45.9006925525091 38.18531770577556) rotate(0 89.16965216824417 35.886086119510765)"><text x="0" y="50.297938305106285" font-family="Virgil, Segoe UI Emoji" font-size="57.41773779121722px" fill="#f08c00" text-anchor="start" style="white-space: pre;" direction="ltr" dominant-baseline="alphabetic">commit</text></g><g transform="translate(134.6051339901676 100.53465687309836) rotate(0 43.05604333713359 25.7670283342336)"><text x="0" y="36.11506691326181" font-family="Virgil, Segoe UI Emoji" font-size="41.22724533477376px" fill="#f08c00" text-anchor="start" style="white-space: pre;" direction="ltr" dominant-baseline="alphabetic">tree</text></g><g transform="translate(454.82776086557305 100.14827805894947) rotate(0 59.96472930908203 35.886086119510765)"><text x="0" y="50.297938305106285" font-family="Virgil, Segoe UI Emoji" font-size="57.41773779121722px" fill="#f08c00" text-anchor="start" style="white-space: pre;" direction="ltr" dominant-baseline="alphabetic">tree</text></g><g transform="translate(465.0037586866197 171.25011415308745) rotate(0 28.04648533832915 19.129447021704436)"><text x="0" y="26.81183294562112" font-family="Virgil, Segoe UI Emoji" font-size="30.60711523472731px" fill="#f08c00" text-anchor="start" style="white-space: pre;" direction="ltr" dominant-baseline="alphabetic">blob</text></g><g transform="translate(800.4375094032371 80.8293373515271) rotate(0 52.616249084472656 35.886086119510765)"><text x="0" y="50.297938305106285" font-family="Virgil, Segoe UI Emoji" font-size="57.41773779121722px" fill="#f08c00" text-anchor="start" style="white-space: pre;" direction="ltr" dominant-baseline="alphabetic">blob</text></g><g transform="translate(819.0040282094233 166.40207682187793) rotate(0 149.6425829122279 60.12109135798164)"><text x="0" y="21.066430411836777" font-family="Virgil, Segoe UI Emoji" font-size="24.048436543192665px" fill="#f08c00" text-anchor="start" style="white-space: pre;" direction="ltr" dominant-baseline="alphabetic">console.log("chaicode.com")</text><text x="0" y="51.12697609082761" font-family="Virgil, Segoe UI Emoji" font-size="24.048436543192665px" fill="#f08c00" text-anchor="start" style="white-space: pre;" direction="ltr" dominant-baseline="alphabetic">function chai(){</text><text x="0" y="81.18752176981843" font-family="Virgil, Segoe UI Emoji" font-size="24.048436543192665px" fill="#f08c00" text-anchor="start" style="white-space: pre;" direction="ltr" dominant-baseline="alphabetic">    let name = 'hitesh'</text><text x="0" y="111.24806744880927" font-family="Virgil, Segoe UI Emoji" font-size="24.048436543192665px" fill="#f08c00" text-anchor="start" style="white-space: pre;" direction="ltr" dominant-baseline="alphabetic">}</text></g><g transform="translate(88.53657790743705 163.79503661272884) rotate(0 62.557875441503825 16.280411660536174)"><text x="0" y="22.818624983407496" font-family="Virgil, Segoe UI Emoji" font-size="26.04865865685787px" fill="#f08c00" text-anchor="start" style="white-space: pre;" direction="ltr" dominant-baseline="alphabetic">_ _ _ _</text></g><g transform="translate(83.01746158323226 207.87882573435945) rotate(0 62.557875441503825 16.280411660536174)"><text x="0" y="22.818624983407496" font-family="Virgil, Segoe UI Emoji" font-size="26.04865865685787px" fill="#f08c00" text-anchor="start" style="white-space: pre;" direction="ltr" dominant-baseline="alphabetic">_ _ _ _</text></g><g transform="translate(80.09318403194038 247.87513371684145) rotate(0 62.55787544150371 16.280411660536174)"><text x="0" y="22.818624983407496" font-family="Virgil, Segoe UI Emoji" font-size="26.04865865685787px" fill="#f08c00" text-anchor="start" style="white-space: pre;" direction="ltr" dominant-baseline="alphabetic">_ _ _ _</text></g><g transform="translate(468.15579638098825 201.40799738372698) rotate(0 62.55787544150371 16.280411660536174)"><text x="0" y="22.818624983407496" font-family="Virgil, Segoe UI Emoji" font-size="26.04865865685787px" fill="#f08c00" text-anchor="start" style="white-space: pre;" direction="ltr" dominant-baseline="alphabetic">_ _ _ _</text></g><g transform="translate(463.69007071851456 238.43528921538382) rotate(0 62.55787544150371 16.280411660536174)"><text x="0" y="22.818624983407496" font-family="Virgil, Segoe UI Emoji" font-size="26.04865865685787px" fill="#f08c00" text-anchor="start" style="white-space: pre;" direction="ltr" dominant-baseline="alphabetic">_ _ _ _</text></g><g transform="translate(463.0515288888164 270.5047307897048) rotate(0 62.55787544150371 16.280411660536174)"><text x="0" y="22.818624983407496" font-family="Virgil, Segoe UI Emoji" font-size="26.04865865685787px" fill="#f08c00" text-anchor="start" style="white-space: pre;" direction="ltr" dominant-baseline="alphabetic">_ _ _ _</text></g><g stroke-linecap="round" transform="translate(10 10) rotate(0 119.08601766596212 150.9826055602689)"><path d="M32 0 C88.78 -1.27, 150.32 1.18, 206.17 0 M32 0 C101.5 2.13, 169.02 -0.14, 206.17 0 M206.17 0 C227.76 -1.07, 239.48 8.15, 238.17 32 M206.17 0 C225.58 -2.32, 236.62 6.29, 238.17 32 M238.17 32 C234.03 123.67, 236.11 210.25, 238.17 269.97 M238.17 32 C237.37 114.51, 236.72 196.03, 238.17 269.97 M238.17 269.97 C241.19 289.2, 228.02 305.45, 206.17 301.97 M238.17 269.97 C236.24 287.34, 230.45 304.23, 206.17 301.97 M206.17 301.97 C138.86 300.97, 78.7 299.04, 32 301.97 M206.17 301.97 C164.7 300.63, 127.15 299.68, 32 301.97 M32 301.97 C9.04 299.24, -2.5 289.8, 0 269.97 M32 301.97 C15.12 302.86, 3.65 292.78, 0 269.97 M0 269.97 C-3.31 181.33, -1.95 88.23, 0 32 M0 269.97 C-2.32 178.13, -1.94 88.01, 0 32 M0 32 C2.18 11.95, 12.67 -2.23, 32 0 M0 32 C-1.33 6.81, 13.78 -1.54, 32 0" stroke="#f08c00" stroke-width="4" fill="none"></path></g><g stroke-linecap="round" transform="translate(421.3795569965537 60.08282860446161) rotate(0 101.72744104716685 139.02519804872782)"><path d="M32 0 C64.23 2.34, 91.67 3.2, 171.45 0 M32 0 C65.93 -0.1, 103.64 -0.29, 171.45 0 M171.45 0 C195.66 1.36, 201.94 9.32, 203.45 32 M171.45 0 C190.38 1.52, 202.87 12.59, 203.45 32 M203.45 32 C208.82 104.35, 202.85 180.26, 203.45 246.05 M203.45 32 C206.56 98.49, 205.27 164.44, 203.45 246.05 M203.45 246.05 C205.48 269.46, 196.18 275.63, 171.45 278.05 M203.45 246.05 C206.47 263.3, 195.56 278.97, 171.45 278.05 M171.45 278.05 C119.11 272.48, 64.19 274.26, 32 278.05 M171.45 278.05 C142.29 281.83, 115.1 282, 32 278.05 M32 278.05 C7.19 278.9, -3.25 266.35, 0 246.05 M32 278.05 C11.46 280.4, -1.61 270.54, 0 246.05 M0 246.05 C-3.21 179.12, -2.76 117.63, 0 32 M0 246.05 C4.41 185.51, 2.18 127.49, 0 32 M0 32 C2.42 14.61, 13.56 -2.05, 32 0 M0 32 C0.51 8.77, 6.23 1.3, 32 0" stroke="#f08c00" stroke-width="4" fill="none"></path></g><g stroke-linecap="round" transform="translate(773.744834063697 32.99564015994929) rotate(0 186.36066992732412 154.45594774219308)"><path d="M32 0 C108.97 2.01, 189.5 2.76, 340.72 0 M32 0 C97.81 -4.78, 164.88 -3.32, 340.72 0 M340.72 0 C365.27 -2.76, 371.46 10.38, 372.72 32 M340.72 0 C365.09 -3.58, 370.17 14.43, 372.72 32 M372.72 32 C365.98 103.13, 368.07 176.53, 372.72 276.91 M372.72 32 C368.51 86.12, 367.39 138.27, 372.72 276.91 M372.72 276.91 C372.08 299.44, 364.87 312.85, 340.72 308.91 M372.72 276.91 C375.22 294.21, 359.27 313.46, 340.72 308.91 M340.72 308.91 C275.77 307.08, 209.44 311.27, 32 308.91 M340.72 308.91 C254.99 305.68, 168.93 306.66, 32 308.91 M32 308.91 C12.16 306.31, 2.47 295.12, 0 276.91 M32 308.91 C11.76 306.39, 3.62 301.83, 0 276.91 M0 276.91 C1.13 223.66, 1.36 167.8, 0 32 M0 276.91 C3.19 190.17, 4.72 106.15, 0 32 M0 32 C-1.73 6.71, 13.38 1.23, 32 0 M0 32 C0.7 15.02, 11.8 -0.33, 32 0" stroke="#f08c00" stroke-width="4" fill="none"></path></g><g stroke-linecap="round"><g transform="translate(222.91506232285246 125.46625824920284) rotate(0 93.19660354531038 1.9278269253300095)"><path d="M2.56 0.51 C33.6 0.54, 153.55 1.23, 183.83 2.09 M0.51 -1.68 C32.59 -1.51, 157.27 4.29, 188.83 4.77" stroke="#f08c00" stroke-width="4" fill="none"></path></g><g transform="translate(222.91506232285246 125.46625824920284) rotate(0 93.19660354531038 1.9278269253300095)"><path d="M165.44 10.72 C168.86 9.12, 176.53 7.58, 190.21 4.56 M165.55 11.9 C174.41 8.52, 183.37 6.7, 188.42 4.42" stroke="#f08c00" stroke-width="4" fill="none"></path></g><g transform="translate(222.91506232285246 125.46625824920284) rotate(0 93.19660354531038 1.9278269253300095)"><path d="M165.99 -6.37 C169.41 -4.3, 176.96 -2.18, 190.21 4.56 M166.11 -5.19 C174.85 -1.74, 183.59 3.27, 188.42 4.42" stroke="#f08c00" stroke-width="4" fill="none"></path></g></g><mask></mask><g stroke-linecap="round"><g transform="translate(531.3755046664965 188.0026861054812) rotate(0 119.09618552949246 -31.79694283171102)"><path d="M2.23 2.6 C41.69 -8.31, 196.31 -54.49, 236.07 -65.83 M0 1.54 C40.39 -9.05, 201.25 -52.6, 241.32 -63.42" stroke="#f08c00" stroke-width="4" fill="none"></path></g><g transform="translate(531.3755046664965 188.0026861054812) rotate(0 119.09618552949246 -31.79694283171102)"><path d="M222.73 -50.55 C224.94 -51.3, 230.86 -56.9, 240.34 -63.13 M220.68 -48.37 C226.15 -53.58, 232.68 -56.7, 241.61 -62.98" stroke="#f08c00" stroke-width="4" fill="none"></path></g><g transform="translate(531.3755046664965 188.0026861054812) rotate(0 119.09618552949246 -31.79694283171102)"><path d="M218.27 -67.06 C221.68 -63.29, 228.83 -64.34, 240.34 -63.13 M216.22 -64.88 C222.9 -65.69, 230.62 -64.42, 241.61 -62.98" stroke="#f08c00" stroke-width="4" fill="none"></path></g></g><mask></mask></svg>